<svg xmlns="http://www.w3.org/2000/svg" width="28.848" height="20.489" viewBox="0 0 28.848 20.489">
  <path id="Icon_awesome-wifi" data-name="Icon awesome-wifi" d="M214.129,513.067a20.225,20.225,0,0,0-27.4,0,.692.692,0,0,0-.038.977l.023.023,1.5,1.477a.706.706,0,0,0,.974.017,16.688,16.688,0,0,1,22.5,0,.707.707,0,0,0,.974-.017l1.489-1.478a.691.691,0,0,0,.006-.978l-.022-.022Zm-13.7,8.574a2.784,2.784,0,1,0,2.783,2.785h0a2.785,2.785,0,0,0-2.781-2.784Zm8.816-3.636a13.354,13.354,0,0,0-17.631,0,.687.687,0,0,0-.059.971.4.4,0,0,0,.034.036l1.5,1.478a.709.709,0,0,0,.959.035,9.8,9.8,0,0,1,12.766,0,.709.709,0,0,0,.959-.035l1.5-1.478a.688.688,0,0,0,.01-.973l-.036-.034Z" transform="translate(-186.007 -507.22)" fill="none" stroke="#024ab6" stroke-linecap="round" stroke-linejoin="round" stroke-width="1"/>
</svg>
