<svg xmlns="http://www.w3.org/2000/svg" width="30.58" height="21.943" viewBox="0 0 30.58 21.943">
  <g id="Group_233" data-name="Group 233" transform="translate(0 0.5)">
    <g id="Group_231" data-name="Group 231" transform="translate(7.587)">
      <path id="Path_161" data-name="Path 161" d="M450.6,732.528a3.352,3.352,0,1,0-6.7,0v5.814" transform="translate(-443.893 -729.176)" fill="none" stroke="#0f3571" stroke-miterlimit="10" stroke-width="1"/>
      <path id="Path_162" data-name="Path 162" d="M449.283,733.754a1.313,1.313,0,1,1,2.626,0Z" transform="translate(-443.893 -729.176)" fill="none" stroke="#0f3571" stroke-miterlimit="10" stroke-width="1"/>
      <path id="Path_163" data-name="Path 163" d="M451.039,736.655a.443.443,0,1,1-.885,0,.538.538,0,1,1,.885,0Z" transform="translate(-443.893 -729.176)" fill="none" stroke="#0f3571" stroke-miterlimit="10" stroke-width="1"/>
    </g>
    <path id="Rectangle_89" data-name="Rectangle 89" d="M0,0H25.389a0,0,0,0,1,0,0V4.775a2.37,2.37,0,0,1-2.37,2.37H2.37A2.37,2.37,0,0,1,0,4.775V0A0,0,0,0,1,0,0Z" transform="translate(3.048 10.866)" fill="none" stroke="#0f3571" stroke-miterlimit="10" stroke-width="1"/>
    <line id="Line_22" data-name="Line 22" x2="30.58" transform="translate(0 10.866)" fill="none" stroke="#0f3571" stroke-miterlimit="10" stroke-width="1"/>
    <g id="Group_232" data-name="Group 232" transform="translate(6.762 17.521)">
      <line id="Line_23" data-name="Line 23" y1="3.922" fill="none" stroke="#0f3571" stroke-miterlimit="10" stroke-width="1"/>
      <line id="Line_24" data-name="Line 24" y1="3.922" transform="translate(18.552)" fill="none" stroke="#0f3571" stroke-miterlimit="10" stroke-width="1"/>
    </g>
  </g>
</svg>
