<svg xmlns="http://www.w3.org/2000/svg" width="36.201" height="30.166" viewBox="0 0 36.201 30.166">
  <g id="Group_1143" data-name="Group 1143" transform="translate(-350.969 -387.085)">
    <path id="Path_805" data-name="Path 805" d="M386.668,403.786a4.615,4.615,0,0,0-.437-1.958c-.028-.155-.063-.307-.1-.463l-3.056-7.579-.021-.067c-1.07-3.186-2.592-6.134-6.452-6.134H361.839c-3.955,0-5.353,3.021-6.446,6.115l-3.2,7.6a4.676,4.676,0,0,0-.726,2.489v11.1a1.863,1.863,0,0,0,1.862,1.863H357.2a1.862,1.862,0,0,0,1.86-1.863v-3.506H379.3v3.506a1.862,1.862,0,0,0,1.862,1.863h3.643a1.863,1.863,0,0,0,1.862-1.863v-11.1Z" fill="none" stroke="#024ab6" stroke-miterlimit="10" stroke-width="1"/>
    <circle id="Ellipse_126" data-name="Ellipse 126" cx="2.364" cy="2.364" r="2.364" transform="translate(355.812 401.409)" fill="none" stroke="#024ab6" stroke-miterlimit="10" stroke-width="1"/>
    <circle id="Ellipse_127" data-name="Ellipse 127" cx="2.364" cy="2.364" r="2.364" transform="translate(375.635 401.409)" fill="none" stroke="#024ab6" stroke-miterlimit="10" stroke-width="1"/>
  </g>
</svg>
