<svg xmlns="http://www.w3.org/2000/svg" width="34.085" height="26.585" viewBox="0 0 34.085 26.585">
  <g id="Group_972" data-name="Group 972" transform="translate(0.5 0.5)">
    <g id="Group_855" data-name="Group 855">
      <g id="Group_847" data-name="Group 847" transform="translate(10.294)">
        <g id="Group_343" data-name="Group 343">
          <g id="Group_341" data-name="Group 341">
            <path id="Rectangle_143" data-name="Rectangle 143" d="M538.382,618.81v-4.7a2.175,2.175,0,0,1,2.174-2.174H559a2.174,2.174,0,0,1,2.174,2.174v15.953A2.174,2.174,0,0,1,559,632.241H542.534" transform="translate(-538.382 -609.45)" fill="none" stroke="#0f3571" stroke-linecap="round" stroke-linejoin="round" stroke-width="1"/>
            <g id="Group_340" data-name="Group 340" transform="translate(6.231)">
              <line id="Line_86" data-name="Line 86" y2="5.158" fill="none" stroke="#0f3571" stroke-linecap="round" stroke-linejoin="round" stroke-width="1"/>
              <line id="Line_87" data-name="Line 87" y2="5.158" transform="translate(10.328)" fill="none" stroke="#0f3571" stroke-linecap="round" stroke-linejoin="round" stroke-width="1"/>
            </g>
          </g>
          <g id="Group_342" data-name="Group 342" transform="translate(0.523 7.51)">
            <line id="Line_88" data-name="Line 88" x2="21.745" fill="none" stroke="#0f3571" stroke-linecap="round" stroke-linejoin="round" stroke-width="1"/>
            <path id="Ellipse_63" data-name="Ellipse 63" d="M542.171,621.221a1.588,1.588,0,1,1,1.522,2.041" transform="translate(-538.905 -616.96)" fill="none" stroke="#0f3571" stroke-linecap="round" stroke-linejoin="round" stroke-width="1"/>
            <path id="Ellipse_63-2" data-name="Ellipse 63" d="M544.267,625.4a1.589,1.589,0,0,1,.044,2.945" transform="translate(-538.905 -616.96)" fill="none" stroke="#0f3571" stroke-linecap="round" stroke-linejoin="round" stroke-width="1"/>
            <circle id="Ellipse_64" data-name="Ellipse 64" cx="1.588" cy="1.588" r="1.588" transform="translate(9.285 3.126)" fill="none" stroke="#0f3571" stroke-linecap="round" stroke-linejoin="round" stroke-width="1"/>
            <circle id="Ellipse_65" data-name="Ellipse 65" cx="1.588" cy="1.588" r="1.588" transform="translate(15.37 3.126)" fill="none" stroke="#0f3571" stroke-linecap="round" stroke-linejoin="round" stroke-width="1"/>
            <circle id="Ellipse_67" data-name="Ellipse 67" cx="1.588" cy="1.588" r="1.588" transform="translate(9.285 8.33)" fill="none" stroke="#0f3571" stroke-linecap="round" stroke-linejoin="round" stroke-width="1"/>
            <circle id="Ellipse_68" data-name="Ellipse 68" cx="1.588" cy="1.588" r="1.588" transform="translate(15.37 8.33)" fill="none" stroke="#0f3571" stroke-linecap="round" stroke-linejoin="round" stroke-width="1"/>
          </g>
        </g>
      </g>
      <g id="Group_344" data-name="Group 344" transform="translate(13.639 21.372) rotate(180)">
        <path id="Path_232" data-name="Path 232" d="M0,0,3.944,3.944,0,7.888" transform="translate(5.777)" fill="none" stroke="#0f3571" stroke-linecap="round" stroke-linejoin="round" stroke-width="1"/>
        <line id="Line_89" data-name="Line 89" x2="9.721" transform="translate(0 3.944)" fill="none" stroke="#0f3571" stroke-linecap="round" stroke-linejoin="round" stroke-width="1"/>
      </g>
      <circle id="Ellipse_110" data-name="Ellipse 110" cx="8.157" cy="8.157" r="8.157" transform="translate(0 9.271)" fill="none" stroke="#0f3571" stroke-linecap="round" stroke-linejoin="round" stroke-width="1"/>
    </g>
  </g>
</svg>
