<svg xmlns="http://www.w3.org/2000/svg" width="23.45" height="21.947" viewBox="0 0 23.45 21.947">
  <g id="Group_882" data-name="Group 882" transform="translate(0.705 0.705)">
    <rect id="Rectangle_317" data-name="Rectangle 317" width="2.601" height="7.335" rx="0.728" transform="translate(4.743 0.139) rotate(40.292)" fill="none" stroke="#024ab6" stroke-miterlimit="10" stroke-width="1"/>
    <rect id="Rectangle_318" data-name="Rectangle 318" width="2.601" height="12.168" rx="0.748" transform="translate(8.317 0) rotate(40.292)" fill="none" stroke="#024ab6" stroke-miterlimit="10" stroke-width="1"/>
    <rect id="Rectangle_319" data-name="Rectangle 319" width="2.601" height="12.168" transform="translate(5.552 7.337) rotate(-49.708)" fill="none" stroke="#024ab6" stroke-miterlimit="10" stroke-width="1"/>
    <path id="Rectangle_320" data-name="Rectangle 320" d="M.825,0h.952A.825.825,0,0,1,2.6.825V1.7a0,0,0,0,1,0,0H0a0,0,0,0,1,0,0V.825A.825.825,0,0,1,.825,0Z" transform="translate(0.235 2.83) rotate(-49.708)" fill="none" stroke="#024ab6" stroke-miterlimit="10" stroke-width="1"/>
    <rect id="Rectangle_321" data-name="Rectangle 321" width="2.601" height="7.335" rx="0.728" transform="translate(17.297 20.398) rotate(-139.708)" fill="none" stroke="#024ab6" stroke-miterlimit="10" stroke-width="1"/>
    <rect id="Rectangle_322" data-name="Rectangle 322" width="2.601" height="12.168" rx="0.748" transform="translate(13.724 20.537) rotate(-139.708)" fill="none" stroke="#024ab6" stroke-miterlimit="10" stroke-width="1"/>
    <path id="Rectangle_323" data-name="Rectangle 323" d="M.825,0h.952A.825.825,0,0,1,2.6.825V1.7a0,0,0,0,1,0,0H0a0,0,0,0,1,0,0V.825A.825.825,0,0,1,.825,0Z" transform="translate(21.805 17.708) rotate(130.292)" fill="none" stroke="#024ab6" stroke-miterlimit="10" stroke-width="1"/>
  </g>
</svg>
