<svg xmlns="http://www.w3.org/2000/svg" width="44" height="44" viewBox="0 0 44 44">
  <g id="Group_937" data-name="Group 937" transform="translate(-1186 -111)">
    <g id="Group_1001" data-name="Group 1001" transform="translate(19 -3258)">
      <g id="Path_789" data-name="Path 789" transform="translate(1167 3369)" fill="none">
        <path d="M22,0A22,22,0,1,1,0,22,22,22,0,0,1,22,0Z" stroke="none"/>
        <path d="M 22 1.200000762939453 C 19.19149017333984 1.200000762939453 16.46762084960938 1.749778747558594 13.9040699005127 2.834068298339844 C 11.42736053466797 3.881629943847656 9.202800750732422 5.381549835205078 7.292179107666016 7.292179107666016 C 5.381549835205078 9.202800750732422 3.881629943847656 11.42736053466797 2.834068298339844 13.9040699005127 C 1.749778747558594 16.46762084960938 1.200000762939453 19.19149017333984 1.200000762939453 22 C 1.200000762939453 24.80850982666016 1.749778747558594 27.53236961364746 2.834068298339844 30.0959300994873 C 3.881629943847656 32.5726318359375 5.381549835205078 34.79719924926758 7.292179107666016 36.70782089233398 C 9.202800750732422 38.61843872070313 11.42736053466797 40.11837005615234 13.9040699005127 41.16592025756836 C 16.46762084960938 42.25022125244141 19.19149017333984 42.79999923706055 22 42.79999923706055 C 24.80850982666016 42.79999923706055 27.53236961364746 42.25022125244141 30.0959300994873 41.16592025756836 C 32.5726318359375 40.11837005615234 34.79719924926758 38.61843872070313 36.70782089233398 36.70782089233398 C 38.61843872070313 34.79719924926758 40.11837005615234 32.5726318359375 41.16592025756836 30.0959300994873 C 42.25022125244141 27.53236961364746 42.79999923706055 24.80850982666016 42.79999923706055 22 C 42.79999923706055 19.19149017333984 42.25022125244141 16.46762084960938 41.16592025756836 13.9040699005127 C 40.11837005615234 11.42736053466797 38.61843872070313 9.202800750732422 36.70782089233398 7.292179107666016 C 34.79719924926758 5.381549835205078 32.5726318359375 3.881629943847656 30.0959300994873 2.834068298339844 C 27.53236961364746 1.749778747558594 24.80850982666016 1.200000762939453 22 1.200000762939453 M 22 0 C 34.15026092529297 0 44 9.8497314453125 44 22 C 44 34.15026092529297 34.15026092529297 44 22 44 C 9.8497314453125 44 0 34.15026092529297 0 22 C 0 9.8497314453125 9.8497314453125 0 22 0 Z" stroke="none" fill="#fd4f31"/>
      </g>
      <g id="Group_1002" data-name="Group 1002" transform="translate(1182.282 3383.572)">
        <line id="Line_120" data-name="Line 120" x2="13.91" y2="13.91" fill="none" stroke="#fd4f31" stroke-linecap="round" stroke-width="1.2"/>
        <line id="Line_121" data-name="Line 121" x2="13.91" y2="13.91" transform="translate(13.91) rotate(90)" fill="none" stroke="#fd4f31" stroke-linecap="round" stroke-width="1.2"/>
      </g>
    </g>
  </g>
</svg>
