<svg xmlns="http://www.w3.org/2000/svg" width="12.482" height="22.312" viewBox="0 0 12.482 22.312">
  <path id="ic_local_florist_24px" data-name="ic local florist 24px" d="M289.659,563.909a5.741,5.741,0,0,0,5.741-5.741A5.741,5.741,0,0,0,289.659,563.909Zm-4.083-12.5a1.6,1.6,0,0,0,2.5,1.314l-.013.121a1.6,1.6,0,0,0,3.19,0l-.013-.121a1.568,1.568,0,0,0,.906.281,19.843,19.843,0,0,1,1.469-5.144,1.6,1.6,0,0,0-2.114-.787,1.578,1.578,0,0,0-.261.151l.013-.121a1.6,1.6,0,0,0-3.19,0l.013.121a1.569,1.569,0,0,0-.906-.281,7.028,7.028,0,0,1-1.6,4.466Zm4.083-3.03a1.595,1.595,0,1,1-1.6,1.594A1.595,1.595,0,0,1,289.659,548.376Zm-5.741,7.655a5.741,5.741,0,0,0,5.741,5.741A5.741,5.741,0,0,0,283.918,556.031Zm5.741-1.6v12.381" transform="translate(-283.418 -545.005)" fill="none" stroke="#024ab6" stroke-linecap="round" stroke-linejoin="round" stroke-width="1"/>
</svg>
