<svg xmlns="http://www.w3.org/2000/svg" width="22.896" height="20.607" viewBox="0 0 22.896 20.607">
  <g id="ic_photo_camera_24px" transform="translate(-2 -2)">
    <circle id="Ellipse_16" data-name="Ellipse 16" cx="3.663" cy="3.663" r="3.663" transform="translate(9.785 9.785)" fill="#e8e8e8"/>
    <path id="Path_92" data-name="Path 92" d="M10.014,2,7.919,4.29H4.29A2.3,2.3,0,0,0,2,6.579V20.317a2.3,2.3,0,0,0,2.29,2.29H22.607a2.3,2.3,0,0,0,2.29-2.29V6.579a2.3,2.3,0,0,0-2.29-2.29H18.977L16.882,2Zm3.434,17.172a5.724,5.724,0,1,1,5.724-5.724A5.726,5.726,0,0,1,13.448,19.172Z" transform="translate(0 0)" fill="#e8e8e8"/>
  </g>
</svg>
