<svg xmlns="http://www.w3.org/2000/svg" width="23.951" height="19.453" viewBox="0 0 23.951 19.453">
  <path id="Icon_awesome-twitter" data-name="Icon awesome-twitter" d="M21.489,8.229c.015.213.015.426.015.638A13.871,13.871,0,0,1,7.538,22.834,13.872,13.872,0,0,1,0,20.63a10.155,10.155,0,0,0,1.185.061,9.831,9.831,0,0,0,6.094-2.1,4.917,4.917,0,0,1-4.59-3.4,6.19,6.19,0,0,0,.927.076A5.192,5.192,0,0,0,4.909,15.1,4.909,4.909,0,0,1,.973,10.28V10.22a4.944,4.944,0,0,0,2.219.623,4.916,4.916,0,0,1-1.52-6.565A13.953,13.953,0,0,0,11.793,9.414a5.541,5.541,0,0,1-.122-1.125,4.914,4.914,0,0,1,8.5-3.359,9.665,9.665,0,0,0,3.116-1.185,4.9,4.9,0,0,1-2.158,2.705,9.841,9.841,0,0,0,2.827-.76,10.552,10.552,0,0,1-2.462,2.538Z" transform="translate(0 -3.381)" fill="#03409b"/>
</svg>
