<svg xmlns="http://www.w3.org/2000/svg" width="18.203" height="15.166" viewBox="0 0 18.203 15.166">
  <path id="Icon_ionic-ios-share-alt" data-name="Icon ionic-ios-share-alt" d="M22.544,13.12,15.857,6.864a.342.342,0,0,0-.265-.114c-.209.009-.474.156-.474.379v3.138a.2.2,0,0,1-.171.194C8.3,11.48,5.5,16.456,4.505,21.623c-.038.2.237.393.365.232a12.087,12.087,0,0,1,10.048-5.09.235.235,0,0,1,.2.227v3.081a.407.407,0,0,0,.687.251l6.735-6.365a.523.523,0,0,0,.166-.4A.635.635,0,0,0,22.544,13.12Z" transform="translate(-4.502 -6.749)" fill="#03409b"/>
</svg>
