<svg xmlns="http://www.w3.org/2000/svg" width="30.577" height="19.11" viewBox="0 0 30.577 19.11">
  <path id="Icon_awesome-google-plus-g" data-name="Icon awesome-google-plus-g" d="M19.476,12.686a8.105,8.105,0,0,1,.156,1.59c0,5.462-3.663,9.334-9.177,9.334a9.555,9.555,0,1,1,0-19.11,9.127,9.127,0,0,1,6.4,2.5l-2.594,2.49A5.365,5.365,0,0,0,10.455,8.02a6.037,6.037,0,0,0,0,12.071,5.175,5.175,0,0,0,5.423-4.119H10.455V12.686h9.021Zm9.227.32V10.233H25.916v2.774H23.142v2.787h2.774v2.774H28.7V15.794h2.774V13.007H28.7Z" transform="translate(-0.9 -4.5)" fill="#03409b"/>
</svg>
