<svg xmlns="http://www.w3.org/2000/svg" width="20.969" height="20.964" viewBox="0 0 20.969 20.964">
  <path id="Icon_awesome-instagram" data-name="Icon awesome-instagram" d="M10.482,7.345a5.375,5.375,0,1,0,5.375,5.375A5.367,5.367,0,0,0,10.482,7.345Zm0,8.87a3.494,3.494,0,1,1,3.494-3.494,3.5,3.5,0,0,1-3.494,3.494ZM17.33,7.125a1.254,1.254,0,1,1-1.254-1.254A1.251,1.251,0,0,1,17.33,7.125ZM20.89,8.4A6.2,6.2,0,0,0,19.2,4,6.245,6.245,0,0,0,14.8,2.311c-1.731-.1-6.919-.1-8.65,0A6.236,6.236,0,0,0,1.762,4,6.225,6.225,0,0,0,.068,8.393c-.1,1.731-.1,6.919,0,8.65a6.2,6.2,0,0,0,1.693,4.393,6.253,6.253,0,0,0,4.393,1.693c1.731.1,6.919.1,8.65,0A6.2,6.2,0,0,0,19.2,21.435a6.245,6.245,0,0,0,1.693-4.393c.1-1.731.1-6.914,0-8.645ZM18.654,18.9a3.538,3.538,0,0,1-1.993,1.993c-1.38.547-4.655.421-6.18.421s-4.8.122-6.18-.421A3.538,3.538,0,0,1,2.309,18.9c-.547-1.38-.421-4.655-.421-6.18s-.122-4.8.421-6.18A3.538,3.538,0,0,1,4.3,4.547c1.38-.547,4.655-.421,6.18-.421s4.8-.122,6.18.421A3.538,3.538,0,0,1,18.654,6.54c.547,1.38.421,4.655.421,6.18S19.2,17.524,18.654,18.9Z" transform="translate(0.005 -2.238)" fill="#03409b"/>
</svg>
