<svg xmlns="http://www.w3.org/2000/svg" width="20.958" height="20.958" viewBox="0 0 20.958 20.958">
  <path id="Icon_awesome-linkedin-in" data-name="Icon awesome-linkedin-in" d="M4.691,20.958H.346V6.966H4.691ZM2.516,5.057a2.528,2.528,0,1,1,2.516-2.54A2.538,2.538,0,0,1,2.516,5.057Zm18.437,15.9H16.617V14.147c0-1.623-.033-3.7-2.259-3.7-2.259,0-2.605,1.764-2.605,3.588v6.928H7.413V6.966H11.58V8.874h.061a4.566,4.566,0,0,1,4.111-2.259c4.4,0,5.206,2.9,5.206,6.657v7.686Z" transform="translate(0 0)" fill="#03409b"/>
</svg>
