<svg xmlns="http://www.w3.org/2000/svg" width="21.113" height="21.013" viewBox="0 0 21.113 21.013">
  <path id="Path_462" data-name="Path 462" d="M413.639,215.961v6.754c0,.258,0,.258.252.26h3.915c.093,0,.136-.038.133-.132v-.194c0-.981-.012-1.965,0-2.947.021-1.5-.062-2.992.047-4.487a4.827,4.827,0,0,1,.322-1.486,1.979,1.979,0,0,1,1.3-1.206,3.225,3.225,0,0,1,1.57-.084,1.79,1.79,0,0,1,1.321.968,3.845,3.845,0,0,1,.4,1.775c.016,2.472.007,4.942.008,7.414v.192c.005.18.006.186.189.186h3.914c.191,0,.194-.006.2-.205.029-1.724-.033-3.45.043-5.174a17.736,17.736,0,0,0-.037-2.638c-.048-.453,0-.913-.052-1.371a11.763,11.763,0,0,0-.179-1.212,5.234,5.234,0,0,0-1.024-2.277,4.009,4.009,0,0,0-1.6-1.125,6.307,6.307,0,0,0-1.95-.378,5.276,5.276,0,0,0-1.446.089,4.627,4.627,0,0,0-2.378,1.279,8.408,8.408,0,0,0-.6.75c-.041.051-.062.164-.154.116-.042-.023-.058-.123-.059-.188-.005-.487,0-.973,0-1.461,0-.2-.005-.2-.2-.207h-3.611c-.364,0-.328-.034-.328.318Q413.638,212.625,413.639,215.961Zm-7.115.01v6.67c0,.362-.036.33.318.331h3.638c.38,0,.343.042.343-.334v-13.5c-.007-.154-.009-.159-.153-.165h-3.912c-.229,0-.229,0-.233.224v6.778Zm2.16-14.007a2.323,2.323,0,0,0-1.783.716,2.515,2.515,0,0,0,1.748,4.291,2.406,2.406,0,0,0,1.8-.747,2.3,2.3,0,0,0,.715-1.728,2.474,2.474,0,0,0-2.417-2.531h-.062Z" transform="translate(-406.167 -201.962)" fill="#0f3571"/>
</svg>
