<svg xmlns="http://www.w3.org/2000/svg" width="29.005" height="23.823" viewBox="0 0 29.005 23.823">
  <path id="Icon_metro-air" data-name="Icon metro-air" d="M6.647,11.348c2.695-2.314,4.823-4.143,10.6-.879a14.09,14.09,0,0,0,6.875,2.156c3.262,0,5.377-1.814,7.2-3.383a1.6,1.6,0,0,0,.188-2.22,1.522,1.522,0,0,0-2.175-.193c-2.693,2.317-4.823,4.146-10.6.879C11.108,3.4,7.533,6.47,4.661,8.938a1.6,1.6,0,0,0-.187,2.22,1.521,1.521,0,0,0,2.173.19ZM29.34,14.707c-2.693,2.314-4.823,4.146-10.6.879-7.632-4.311-11.207-1.24-14.079,1.226a1.6,1.6,0,0,0-.187,2.22,1.52,1.52,0,0,0,2.173.193c2.695-2.315,4.823-4.144,10.6-.882A14.1,14.1,0,0,0,24.122,20.5c3.262,0,5.377-1.814,7.2-3.386a1.6,1.6,0,0,0,.188-2.218,1.521,1.521,0,0,0-2.175-.191Zm0,7.876c-2.693,2.317-4.823,4.146-10.6.882-7.632-4.311-11.207-1.242-14.079,1.226a1.6,1.6,0,0,0-.187,2.22,1.52,1.52,0,0,0,2.173.19c2.695-2.314,4.823-4.141,10.6-.879a14.132,14.132,0,0,0,6.875,2.159c3.262,0,5.377-1.817,7.2-3.386a1.6,1.6,0,0,0,.188-2.22,1.523,1.523,0,0,0-2.175-.193Z" transform="translate(-3.492 -5.058)" fill="none" stroke="#024ab6" stroke-width="1"/>
</svg>
