<svg xmlns="http://www.w3.org/2000/svg" width="25.332" height="24.053" viewBox="0 0 25.332 24.053">
  <g id="Group_886" data-name="Group 886" transform="translate(0.707 0.696)">
    <g id="Group_887" data-name="Group 887" transform="translate(0.43)">
      <g id="Group_886-2" data-name="Group 886" transform="translate(0 11.62)">
        <path id="Path_778" data-name="Path 778" d="M380.838,518.819l11.383.045-.005-2.748-11.383-.045Z" transform="translate(-373.456 -516.043)" fill="none" stroke="#024ab6" stroke-linecap="round" stroke-linejoin="round" stroke-width="1"/>
        <path id="Path_779" data-name="Path 779" d="M373.461,518.79l7.376.029-.005-2.748-7.376-.029Z" transform="translate(-373.456 -516.043)" fill="none" stroke="#024ab6" stroke-linecap="round" stroke-linejoin="round" stroke-width="1"/>
        <line id="Line_154" data-name="Line 154" x2="0.013" y2="2.473" transform="translate(20.06 0.216)" fill="none" stroke="#024ab6" stroke-linecap="round" stroke-linejoin="round" stroke-width="1"/>
      </g>
      <path id="Path_780" data-name="Path 780" d="M395.294,514.916c.757-1.27,3.047-3.642,1.261-5.806-1.879-2.277-2.022-3.283-1.043-4.687" transform="translate(-373.456 -504.423)" fill="none" stroke="#024ab6" stroke-linecap="round" stroke-linejoin="round" stroke-width="1"/>
      <path id="Path_781" data-name="Path 781" d="M392.8,505.7c-.979,1.4.352,2.732.98,3.144s2.28,1.289,1.562,3.386c-.415,1.211-1.19,2.351-1.382,2.885" transform="translate(-373.456 -504.423)" fill="none" stroke="#024ab6" stroke-linecap="round" stroke-linejoin="round" stroke-width="1"/>
    </g>
    <line id="Line_155" data-name="Line 155" x2="19.662" y2="19.671" transform="translate(0 2.979)" fill="none" stroke="#024ab6" stroke-linecap="round" stroke-linejoin="round" stroke-width="1"/>
  </g>
</svg>
