<svg xmlns="http://www.w3.org/2000/svg" width="28.867" height="38.666" viewBox="0 0 28.867 38.666">
  <g id="Group_483" data-name="Group 483" transform="translate(0.5 0.5)">
    <g id="Group_236" data-name="Group 236" transform="translate(6.253 0)">
      <ellipse id="Ellipse_28" data-name="Ellipse 28" cx="3.715" cy="3.715" rx="3.715" ry="3.715" transform="translate(9.161)" fill="none" stroke="#024ab6" stroke-miterlimit="10" stroke-width="1"/>
      <path id="Path_166" data-name="Path 166" d="M53.588,744.107s2.988-4.175,3.823-5.847c.878-1.761,1.328-6.379,4.792-6.379h8.473A4.527,4.527,0,0,1,75.2,736.41v9.632h-.579a3.65,3.65,0,0,1-3.65-3.65v18.1H62.386V736.318l-1.717,3.736a7.381,7.381,0,0,1-1.156,1.787L57.8,743.792a2.476,2.476,0,0,1-2.486.766l-1.73-.45" transform="translate(-53.588 -722.826)" fill="none" stroke="#024ab6" stroke-linecap="round" stroke-linejoin="round" stroke-width="1"/>
    </g>
    <line id="Line_28" data-name="Line 28" y2="13.004" transform="translate(19.344 24.662)" fill="none" stroke="#024ab6" stroke-miterlimit="10" stroke-width="1"/>
    <g id="Group_239" data-name="Group 239" transform="translate(0 21.281)">
      <rect id="Rectangle_92" data-name="Rectangle 92" width="8.895" height="8.789" transform="translate(0 5.367)" fill="none" stroke="#024ab6" stroke-miterlimit="10" stroke-width="1"/>
      <g id="Group_237" data-name="Group 237" transform="translate(1.779 14.157)">
        <line id="Line_29" data-name="Line 29" y1="2.228" fill="none" stroke="#024ab6" stroke-miterlimit="10" stroke-width="1"/>
        <line id="Line_30" data-name="Line 30" y1="2.228" transform="translate(5.295)" fill="none" stroke="#024ab6" stroke-miterlimit="10" stroke-width="1"/>
      </g>
      <g id="Group_238" data-name="Group 238" transform="translate(1.776)">
        <rect id="Rectangle_93" data-name="Rectangle 93" width="5.295" height="5.369" fill="none" stroke="#024ab6" stroke-miterlimit="10" stroke-width="1"/>
      </g>
    </g>
  </g>
</svg>
