<svg xmlns="http://www.w3.org/2000/svg" width="31.553" height="21.987" viewBox="0 0 31.553 21.987">
  <g id="Group_883" data-name="Group 883" transform="translate(0.5 0.5)">
    <g id="Group_885" data-name="Group 885" transform="translate(7.415)">
      <g id="Group_884" data-name="Group 884">
        <g id="Group_883-2" data-name="Group 883">
          <path id="Path_772" data-name="Path 772" d="M332.48,521.574V507.123a1.868,1.868,0,0,0-3.322-1.173,8.5,8.5,0,0,0-.635,1.769" transform="translate(-328.523 -505.254)" fill="none" stroke="#024ab6" stroke-linecap="round" stroke-linejoin="round" stroke-width="1"/>
          <line id="Line_149" data-name="Line 149" x1="6.846" transform="translate(4.008 5.485)" fill="none" stroke="#024ab6" stroke-linecap="round" stroke-linejoin="round" stroke-width="1"/>
          <line id="Line_150" data-name="Line 150" x1="6.846" transform="translate(4.008 8.823)" fill="none" stroke="#024ab6" stroke-linecap="round" stroke-linejoin="round" stroke-width="1"/>
          <line id="Line_151" data-name="Line 151" x1="6.846" transform="translate(4.008 12.137)" fill="none" stroke="#024ab6" stroke-linecap="round" stroke-linejoin="round" stroke-width="1"/>
          <path id="Path_773" data-name="Path 773" d="M339.359,520.309V507.123a1.868,1.868,0,0,0-3.322-1.173,8.44,8.44,0,0,0-.635,1.769" transform="translate(-328.523 -505.254)" fill="none" stroke="#024ab6" stroke-linecap="round" stroke-linejoin="round" stroke-width="1"/>
        </g>
      </g>
    </g>
    <line id="Line_152" data-name="Line 152" x1="7.975" transform="translate(0 5.485)" fill="none" stroke="#024ab6" stroke-linecap="round" stroke-linejoin="round" stroke-width="1"/>
    <line id="Line_153" data-name="Line 153" x1="7.975" transform="translate(22.578 5.485)" fill="none" stroke="#024ab6" stroke-linecap="round" stroke-linejoin="round" stroke-width="1"/>
    <path id="Path_774" data-name="Path 774" d="M321.108,521.574c2.992,0,2.992-1.265,5.983-1.265s2.991,1.265,5.981,1.265,2.988-1.265,5.98-1.265,2.99,1.265,5.984,1.265,2.991-1.265,5.982-1.265" transform="translate(-321.108 -505.254)" fill="none" stroke="#024ab6" stroke-linecap="round" stroke-linejoin="round" stroke-width="1"/>
    <path id="Path_775" data-name="Path 775" d="M321.108,526.241c2.992,0,2.992-1.264,5.983-1.264s2.991,1.264,5.981,1.264,2.988-1.264,5.98-1.264,2.99,1.264,5.984,1.264,2.991-1.264,5.982-1.264" transform="translate(-321.108 -505.254)" fill="none" stroke="#024ab6" stroke-linecap="round" stroke-linejoin="round" stroke-width="1"/>
    <path id="Path_776" data-name="Path 776" d="M345.036,516.156c2.991,0,2.991-1.265,5.982-1.265" transform="translate(-321.108 -505.254)" fill="none" stroke="#024ab6" stroke-linecap="round" stroke-linejoin="round" stroke-width="1"/>
    <path id="Path_777" data-name="Path 777" d="M321.108,516.156c2.992,0,2.992-1.265,5.983-1.265" transform="translate(-321.108 -505.254)" fill="none" stroke="#024ab6" stroke-linecap="round" stroke-linejoin="round" stroke-width="1"/>
  </g>
</svg>
