<svg xmlns="http://www.w3.org/2000/svg" width="71.436" height="93.399" viewBox="0 0 71.436 93.399">
  <g id="Component_43_1" data-name="Component 43 – 1" transform="translate(1.5 1.5)">
    <path id="Path_867" data-name="Path 867" d="M81.618,98.623A29.311,29.311,0,1,1,115.4,78.9" transform="translate(-58.154 -40.55)" fill="none" stroke="#00204f" stroke-miterlimit="10" stroke-width="3"/>
    <path id="Path_868" data-name="Path 868" d="M105.095,90.425H99.229V78.693H93.363" transform="translate(-69.899 -53.274)" fill="none" stroke="#69cf62" stroke-miterlimit="10" stroke-width="3"/>
    <line id="Line_217" data-name="Line 217" y1="3.911" transform="translate(29.33 17.597)" fill="none" stroke="#69cf62" stroke-miterlimit="10" stroke-width="3"/>
    <path id="Path_869" data-name="Path 869" d="M113.9,144.2v-5.866c-4.807-3.748-6.273-8.636-7.821-11.732l-3.911-7.821c0-1.891,4.013-3.943,6.033-1.955s3.827,3.911,3.827,3.911H113.9V97.274a3.993,3.993,0,0,1,4.006-3.911h-.047a3.87,3.87,0,0,1,3.863,3.911v15.642l13.592,2.815c3.3.66,5.962,3.051,5.962,6.961v9.776c0,2.2-1.955,3.833-1.955,5.867V144.2Z" transform="translate(-72.835 -58.167)" fill="none" stroke="#00204f" stroke-miterlimit="10" stroke-width="3"/>
    <path id="Path_870" data-name="Path 870" d="M113.9,175.514v-5.866h31.285v5.866" transform="translate(-76.75 -83.615)" fill="none" stroke="#00204f" stroke-miterlimit="10" stroke-width="3"/>
    <path id="Path_871" data-name="Path 871" d="M97.266,94.493a21.512,21.512,0,1,1,15.642-20.7" transform="translate(-62.069 -44.465)" fill="none" stroke="#00204f" stroke-miterlimit="10" stroke-width="3"/>
  </g>
</svg>
