<svg xmlns="http://www.w3.org/2000/svg" width="98.248" height="79.628" viewBox="0 0 98.248 79.628">
  <g id="Group_1264" data-name="Group 1264" transform="translate(-572.724 -422.275)">
    <path id="Path_863" data-name="Path 863" d="M592.859,452.974c-10.939,3.685-18.635,12.457-18.635,22.692a22,22,0,0,0,7.319,16,36.952,36.952,0,0,1-2.549,11.746,1.4,1.4,0,0,0,1.621,1.9c6.489-1.574,10.778-4.129,13.419-6.61a36.208,36.208,0,0,0,10.349,1.515,34.37,34.37,0,0,0,19.536-5.846" transform="translate(0 -4.963)" fill="none" stroke="#00204f" stroke-miterlimit="10" stroke-width="3"/>
    <line id="Line_205" data-name="Line 205" y2="10.353" transform="translate(623.919 440.34)" fill="none" stroke="#69cf62" stroke-linejoin="round" stroke-width="3"/>
    <line id="Line_206" data-name="Line 206" y2="10.353" transform="translate(642.554 440.34)" fill="none" stroke="#69cf62" stroke-linejoin="round" stroke-width="3"/>
    <path id="Path_864" data-name="Path 864" d="M664.47,474.165c5.981-5.354,9.666-12.495,9.666-20.366,0-16.582-16.223-30.024-36.236-30.024s-36.235,13.442-36.235,30.024,16.223,30.024,36.235,30.024a43.224,43.224,0,0,0,9.749-1.131c3.658,3.289,9.4,6.616,17.958,8.7a1.932,1.932,0,0,0,2.227-2.615A51.086,51.086,0,0,1,664.47,474.165Z" transform="translate(-4.664 0)" fill="none" stroke="#00204f" stroke-miterlimit="10" stroke-width="3"/>
    <path id="Path_865" data-name="Path 865" d="M664.256,458.7c0,10.292-10.661,18.635-23.812,18.635s-23.812-8.344-23.812-18.635" transform="translate(-7.208 -5.936)" fill="none" stroke="#69cf62" stroke-miterlimit="10" stroke-width="3"/>
  </g>
</svg>
