<svg xmlns="http://www.w3.org/2000/svg" width="623.335" height="493.337" viewBox="0 0 623.335 493.337">
  <g id="Group_1317" data-name="Group 1317" transform="translate(-3722.598 -1730.867)">
    <line id="Line_220" data-name="Line 220" y1="122.211" x2="88.243" transform="translate(4255.754 1802.722)" fill="none" stroke="#a6a8ab" stroke-miterlimit="10" stroke-width="4.774"/>
    <line id="Line_221" data-name="Line 221" x1="42.851" y1="106.604" transform="translate(3724.813 1731.757)" fill="none" stroke="#a6a8ab" stroke-miterlimit="10" stroke-width="4.774"/>
    <path id="Path_901" data-name="Path 901" d="M4108.7,2132.195c-1.464,4.7-6.6,7.125-11.343,8.477-4.533,1.293-9.73,2.03-13.692-.524-2.659-1.714-4.27-4.614-5.775-7.4q-2.4-4.44-4.8-8.879c-.742-1.373-5-7.144-4.5-8.562.854-2.442,8.921,5.985,10.637,7.209a52.586,52.586,0,0,0,14.164,7.159C4094.736,2130.12,4108.308,2133.625,4108.7,2132.195Z" transform="translate(-168.423 -187.718)" fill="#f6bd96"/>
    <path id="Path_902" data-name="Path 902" d="M4270.748,2081.913c7.384-8.737,16.274-16.222,27.183-19.122,13.644-3.626,28.013.5,41.522,4.605l108.1,32.832c-16.519,4.15-18.519,12.966-35.507,14.163-31.082,2.191-77.4-6.7-107.6-14.391-3.376,13.9-6.834,28.014-13.916,40.445-10.371,18.2-46.635,43.7-58.6,11.668-3.457-9.255,5.628-20.9,9.882-28.958,6.168-11.689,15.278-22.791,22.991-33.567C4266.673,2086.98,4268.65,2084.4,4270.748,2081.913Z" transform="translate(-248.105 -161.519)" fill="#5fc0fa"/>
    <path id="Path_903" data-name="Path 903" d="M4372.009,2135.142a177.675,177.675,0,0,1-30.5-9.049,106.175,106.175,0,0,1-13.683-6.39c-2.226-1.268-4.418-2.593-6.644-3.863-1.126-.643-2.259-1.273-3.409-1.872a6.069,6.069,0,0,0-1.72-.865c-.593-.015-.912.829-1.183,1.253-10.389,16.288-14.8,36.049-27.711,50.734-9.732,11.066-22.483,19.293-36.076,24.983,15.724,9.732,40.857-9.633,49.209-24.292,7.082-12.431,10.539-26.542,13.916-40.445,28.37,7.224,70.962,15.506,101.788,14.666C4401.247,2139.212,4386.511,2138.029,4372.009,2135.142Z" transform="translate(-257.865 -186.853)" fill="#0d8ed0"/>
    <g id="Group_1304" data-name="Group 1304" transform="translate(3914.156 1892.766)">
      <path id="Path_904" data-name="Path 904" d="M4096.063,2151.164l50.5,37.459,54.153-17.894-50.735-32.843Z" transform="translate(-4096.063 -2091.763)" fill="#a7a9ac"/>
      <path id="Path_905" data-name="Path 905" d="M4162.078,2174.55l-14.8,3.824,17.656,13.1,14.952-4.984Z" transform="translate(-4121.156 -2109.728)" fill="#d0d2d3"/>
      <path id="Path_906" data-name="Path 906" d="M4184.646,2146.183l-21.074,5.09,39.819,26.7,20.1-6.641Z" transform="translate(-4129.142 -2095.828)" fill="#231f20"/>
      <path id="Path_907" data-name="Path 907" d="M4271.172,2076.027l-50.266-28.408a1.285,1.285,0,0,0-1.833.661l-17.291,45.3,50.736,32.843.053-.017L4272.2,2079A2.371,2.371,0,0,0,4271.172,2076.027Z" transform="translate(-4147.864 -2047.452)" fill="#231f20"/>
      <path id="Path_908" data-name="Path 908" d="M4206.745,2095.617l15.836-41.48a1.285,1.285,0,0,1,1.833-.661l46.575,26.323a2.372,2.372,0,0,1,1.024,2.972l-17.991,43.45Z" transform="translate(-4150.295 -2050.322)" fill="#fff"/>
    </g>
    <path id="Path_909" data-name="Path 909" d="M4471.989,2065.426c16.25-5.321,32.8-11.1,46.037-21.924a59.156,59.156,0,0,0,15.441-20.288,86.692,86.692,0,0,0,4.791-12.364c.7-2.307,1.237-10.131,4.325-10.522,3.439-.435,7.126,7.617,8.1,10.136a29.012,29.012,0,0,1,1.645,13.047c-.812,8.95-4.815,17.517-9.867,24.839-8.264,11.98-24.075,19.746-36.881,26.659-46.317,25-95.718,46.71-148.15,51.337-9.521.84-25.108.881-28.815-10.551-4.036-12.44,13.326-13.66,21.294-15.6q39.394-9.568,78.274-21.106Q4450.178,2072.568,4471.989,2065.426Z" transform="translate(-295.558 -131.587)" fill="#f6bd96"/>
    <path id="Path_910" data-name="Path 910" d="M4518.238,2107.091c-2.239-4.138-4.691-8.179-7.332-12.088-11.819,7.644-25.456,12.414-38.917,16.821q-21.808,7.139-43.81,13.667-38.865,11.529-78.274,21.106c-7.968,1.936-25.33,3.156-21.294,15.6,3.708,11.432,19.3,11.391,28.815,10.551,52.432-4.627,101.833-26.333,148.15-51.337,4.954-2.674,10.354-5.479,15.6-8.6Q4519.766,2109.9,4518.238,2107.091Z" transform="translate(-295.558 -177.985)" fill="#5fc0fa"/>
    <path id="Path_911" data-name="Path 911" d="M3924.267,2019.573a49.562,49.562,0,0,1,13.339,1.85,70.72,70.72,0,0,1,35.892,23.614c11.131,13.934,17.752,24.885,27.708,39.681a137.922,137.922,0,0,0,46.069,42.792c9.428,5.345,20.034,7.288,29.472,11.992,9.342,4.657,9.425,15.4,6.914,25.6-5.992,24.345-25.954,13.485-41.647,6.547a319.059,319.059,0,0,1-53.593-30.378c-8.673-6.061-16.87-12.108-25.973-17.54l-28.367-16.927c-19.119-11.409-35.178-28.6-34.633-52.359C3899.789,2039.608,3907.024,2019.8,3924.267,2019.573Z" transform="translate(-85.563 -141.024)" fill="#0f3571"/>
    <g id="Group_1305" data-name="Group 1305" transform="translate(3816.135 1804.59)">
      <path id="Path_912" data-name="Path 912" d="M3943.964,1978.71c-1.136-.187-2.271-.424-3.36-.54a11.962,11.962,0,0,1-5.561-2.376,16.2,16.2,0,0,1-6.2-10.912l-7.3-56.606,26.463-3.411q1.435,11.129,2.869,22.258c.052,3.357,1.109,6.958,1.585,10.288.444,3.1.556,6.142,1,9.251l3.06,21.607a12.368,12.368,0,0,1,.068,4.646,6.793,6.793,0,0,1-3.29,4.15,14.907,14.907,0,0,1-6.067,1.893A14.643,14.643,0,0,1,3943.964,1978.71Z" transform="translate(-3912.53 -1889.411)" fill="#e7a579"/>
      <path id="Path_913" data-name="Path 913" d="M3949.226,1955.838c33.625,8.4,33.615-67.121-.665-76.557-38.9-10.708-40.361,28.5-22.355,55.47C3932.6,1944.321,3937.876,1953,3949.226,1955.838Z" transform="translate(-3909.366 -1875.988)" fill="#f6bd96"/>
      <path id="Path_914" data-name="Path 914" d="M3907.946,1910.6c-2.945-6.73-5.491-14.319-3.176-21.29,2.275-6.849,8.913-11.519,15.883-13.391s14.326-1.4,21.527-.921c3.975.266,7.769-.146,11.387,1.541a25.2,25.2,0,0,0,13.021,2.427c2.512-.233,5.2-.825,7.441.339,2.384,1.24,3.435,4.081,3.884,6.731a14.192,14.192,0,0,1-.916,8.89c-1.629,3.14-4.928,5.142-8.353,6.024-3.632.935-7.918-.176-11.071,1.935-2.826,1.891-5.477,5.448-9.161,5.488-2.25.024-3.848-1.639-5.867-1.9a23.1,23.1,0,0,1-7.7-2.368c-2.842-1.384-6.483-2.429-8.956-.461-1.844,1.467-2.281,4.094-2.161,6.446s.656,4.726.217,7.041a9.055,9.055,0,0,0-2.731-1.624,3.074,3.074,0,0,0-3,.517c-1.231,1.174-.749,3.3.321,4.624s2.593,2.234,3.592,3.609c2.748,3.782,2.023,10.536-3.376,11.3-5.436.767-4.691-6.279-5.228-9.478C3912.609,1920.633,3910.138,1915.6,3907.946,1910.6Z" transform="translate(-3903.87 -1874.563)" fill="#091a4c"/>
    </g>
    <path id="Path_915" data-name="Path 915" d="M4057.681,2017.939a444.008,444.008,0,0,0,256.743-101.632c-14.873,35.33-32.666,69.2-55.315,100.131-47.148,64.382-118.55,115.175-198.194,120.149-63.486,3.965-119.636-10.738-168.447-51.526-76.314-63.77-101.76-184.9-130.578-258.65C3852.056,1985.268,3886.233,2028.009,4057.681,2017.939Z" transform="translate(-18.168 -46.379)" fill="#ffd126"/>
    <path id="Path_916" data-name="Path 916" d="M4150.833,2299.593a554.927,554.927,0,0,1-66.635-7.306c-21.144-3.681-42.711-8.324-62.68-16.348-38.233-15.363-70.095-43.278-98.522-72.441-10.3-10.563-20.026-21.671-29.619-32.893,16.532,31.708,36.932,60.891,63.517,83.106,48.811,40.788,104.96,55.491,168.446,51.526a212.409,212.409,0,0,0,35.322-5.263C4157.386,2299.855,4154.108,2299.762,4150.833,2299.593Z" transform="translate(-82.594 -215.029)" fill="#da790e"/>
    <g id="Group_1306" data-name="Group 1306" transform="translate(3821.382 1888.372)">
      <path id="Path_917" data-name="Path 917" d="M3950.65,2093.439a26.064,26.064,0,0,1,3.926.462c13.865,2.71,19.482,12.93,24.5,24.78,5.3,12.523,10.436,25.1,15.116,37.87a62.917,62.917,0,0,0,34.454-10.911c9.961-6.643,17.613-16.323,30.917-14.263a25.287,25.287,0,0,1,18.812,14.279,100.071,100.071,0,0,0-20.243-2.16c-2.461-.011-6.253-.574-8.427.77-1.777,1.1-3.251,4.029-4.545,5.634-5.939,7.363-10.867,16.154-17.689,22.742-8.287,8-21.513,15.178-33.37,12.915-8.75-1.671-19.59-7.9-25.4-14.655-9.591-11.163-19.388-22.422-26.581-35.338-5.339-9.585-15.851-28.155-5.407-37.635C3940.432,2094.555,3945.579,2093.236,3950.65,2093.439Z" transform="translate(-3923.031 -2065.581)" fill="#f6bd96"/>
      <path id="Path_918" data-name="Path 918" d="M3925.7,2099.077a121.781,121.781,0,0,0,9.647,17.314,140.289,140.289,0,0,1,17.354-13.486c5.184-3.406,10.51-6.732,15.92-9.821,1.494-.853,3.019-1.67,4.574-2.435a165.311,165.311,0,0,1-8.155-19.423c-3.556-10.771-8.229-19.825-18.322-26.8-13.806-9.545-31.694-7.438-32.535,10.809a47.909,47.909,0,0,0,1.444,12.181A155.432,155.432,0,0,0,3925.7,2099.077Z" transform="translate(-3914.159 -2038.836)" fill="#0f3571"/>
      <path id="Path_919" data-name="Path 919" d="M3966.74,2046.521a73.757,73.757,0,0,1,15.349,25.688c2.356,6.66,4.793,13.294,7.064,19.984.345,1.015.622,2.035.879,3.06.518-.3,1.026-.624,1.546-.921,1.494-.853,3.019-1.67,4.574-2.435a165.241,165.241,0,0,1-8.154-19.423c-3.557-10.771-8.229-19.825-18.323-26.8a32.939,32.939,0,0,0-8.673-4.289A42.14,42.14,0,0,1,3966.74,2046.521Z" transform="translate(-3937.112 -2040.083)" fill="#1b6ac8"/>
    </g>
    <g id="Group_1316" data-name="Group 1316" transform="translate(4042.285 1978.712)">
      <g id="Group_1314" data-name="Group 1314" transform="translate(0 0)">
        <path id="Path_920" data-name="Path 920" d="M4558.217,2443.481c.349-4.323.2-8.731.394-13.008.382-8.443.814-16.885,1.362-25.319,1.1-16.97,2.347-33.958,4.41-50.841,1.81-14.813,2.9-32.438,11.341-45.271,3.923-5.969,9.984-12.25,16.843-14.729,6.933-2.506,13.752.055,19.81,3.574a.829.829,0,0,0,.836-1.43c-8.212-4.771-17.012-6.8-25.52-1.575-9.1,5.594-15.643,14.969-18.818,25.042-3.957,12.555-5.25,26.195-6.715,39.227-1.661,14.766-2.751,29.6-3.739,44.419-.526,7.907-.949,15.82-1.32,23.736-.242,5.163.03,10.68-.46,15.991C4557.156,2443.366,4557.683,2443.43,4558.217,2443.481Z" transform="translate(-4449.868 -2253.125)" fill="#69cf62"/>
        <path id="Path_921" data-name="Path 921" d="M4481.071,2436.984c1.152.146,2.311.231,3.465.345-3.411-14.269-1.852-29.59-2.263-44.114-.571-20.19-1.105-40.384-2.186-60.554-.927-17.316-2.229-36.19-9.068-52.5-.419.281-.849.542-1.29.79,3.2,8.315,4.922,17.494,6.013,24.1a268.512,268.512,0,0,1,2.815,30.025c.981,19.1,1.5,38.21,2.036,57.322.4,14.288-1.1,29.409,1.9,43.551-2.009-6.683-2.719-13.93-3.461-20.581-1.278-11.447-2.935-22.61-6.772-33.536-3.972-11.306-10.019-21.382-15.36-32.034-3.852-7.681-7.962-17.046-16.674-20.211-10.278-3.735-21.2,1.919-26.074,11.2-.5.943.934,1.781,1.43.836,3.469-6.6,9.934-11.364,17.565-11.527,7.092-.152,12.449,3.829,16.279,9.47,3.249,4.784,5.427,10.182,8.2,15.233a219.062,219.062,0,0,1,10.047,19.791c5.59,13.163,8.122,26.648,9.7,40.779C4478.158,2422.39,4478.9,2430,4481.071,2436.984Z" transform="translate(-4380 -2247.423)" fill="#69cf62"/>
        <path id="Path_922" data-name="Path 922" d="M4622.624,2350.21c-10.618-3.589-21.736-1.028-30.249,6.253-8.848,7.567-12.751,19.406-15.448,30.348-3.265,13.247-5.956,26.781-8.2,40.232-2.468,14.8-4.493,29.709-7.987,44.3q.864.067,1.728.061c2.434-10.24,4.146-20.639,5.792-31.042,2.028-12.822,4.438-25.5,7.048-38.211,4.266-20.783,10.3-51.995,37.59-52.1,8.558-.033,25.606,5.93,25.948,16.225.036,1.063,1.692,1.068,1.656,0C4640.211,2357.495,4629.774,2352.626,4622.624,2350.21Z" transform="translate(-4451.877 -2280.956)" fill="#69cf62"/>
        <path id="Path_923" data-name="Path 923" d="M4641.561,2253.254c-7.776-2.979-18.817,3.23-20.18,11.648-5.635-3.259-14.4-3.9-16.851,3.4-3.809,11.333,10.252,17.918,16.413,24.172a1.251,1.251,0,0,0,2.141-1.077,76.574,76.574,0,0,1-1.71-11.27c-.13-1.442.48-3.193,1.9-3.469a2.614,2.614,0,0,1,2.733,1.969c.883,2.864-.7,6.992-.87,9.966-.153,2.67-.663,5.8,1.722,7.608,1.447,1.093,3.333,1.009,5.062,1.064,5.08.163,8.422-.226,13.293,2.083a1.265,1.265,0,0,0,1.911-.977c.711-4.7,3.659-7.883,4.9-12.226a6.858,6.858,0,0,0-.439-5.519c-1.032-1.655-2.5-2.237-4.275-2.728-.843-.233-4.826-.18-5.311-.906q.981-7.253,5.978-2.793,1.2,1.949,2.466,3.855a1.254,1.254,0,0,0,2.351-.485C4654.4,2268.591,4650.772,2256.784,4641.561,2253.254Z" transform="translate(-4473.018 -2233.866)" fill="#69cf62"/>
        <g id="Group_1308" data-name="Group 1308" transform="translate(29.466)">
          <g id="Group_1307" data-name="Group 1307">
            <path id="Path_924" data-name="Path 924" d="M4496.764,2243.839c-3.12-4.21-8.124-6.568-11.453-10.739a.839.839,0,0,1,.168-1.3c3.98-1.906,7.317.309,10.043,3.943a24.86,24.86,0,0,0-2.691-6.111c-5.231-8.43-15.1-13.158-24.817-13.609-7.171-.333-16.956.676-21.122,7.233-5.835-6.137-16.817-6.807-24.285-3.842-10.04,3.986-16.288,14.232-17.348,24.705a35.585,35.585,0,0,0,.184,8.933c1.547-2,3.233-3.858,4.7-5.475,2.095-2.313,7.317-8.652,11.185-7.1,5.144,2.059-1.117,8.438-2.963,10.248-2.739,2.687-6.044,5.04-7.985,8.4a40.3,40.3,0,0,0-1.838,3.63,44.307,44.307,0,0,0,6.731,9.618c.7.783,1.426,1.55,2.14,2.323a39.076,39.076,0,0,1,2.479-10.4c1.152-3.2,3.919-10.874,8.521-10.239,6.729.929,1.777,10.235,0,13.106-1.862,3-4.771,6.179-5.312,9.751-.6,3.984,1.733,8.2,4.313,11.036,3.139,3.452,7.188,5.927,10.708,8.988s6.66,7.063,6.946,11.72c1.7-4.245,5.457-7.29,9.256-9.835s7.872-4.861,10.787-8.384c5.652-6.83,2.584-13.483-1.347-20.084-1.663-2.791-3.556-9.041,1.632-9.575,4.966-.512,8.422,6.155,9.564,9.946a29.116,29.116,0,0,1,.781,11.706,68.23,68.23,0,0,0,10.808-9.832,24.459,24.459,0,0,0-1.382-8.74c-1.477-3.9-4.4-6.6-6.752-9.931-1.943-2.758-4.512-9.471,1.077-10.042,4.87-.5,10.023,5.656,12.211,9.331a28.394,28.394,0,0,1,2.634,5.934c.055-.162.128-.309.181-.473A45.215,45.215,0,0,0,4496.764,2243.839Zm-65.632-.419a2.145,2.145,0,0,1-2.746,1.835.844.844,0,0,1-.608-.8,2.314,2.314,0,0,1,.111-.592.715.715,0,0,1,.126-.956,2.536,2.536,0,0,1,2.539-.507A.846.846,0,0,1,4431.132,2243.42Zm1.922-5.086a.875.875,0,0,1-.8-.981,1.485,1.485,0,0,1,.549-1.455,2.487,2.487,0,0,1,3.114-.713.839.839,0,0,1,.381.936A3.14,3.14,0,0,1,4433.054,2238.334Zm4.664,5.233c-.825.529-2.14,1.01-2.961.215a2.129,2.129,0,0,1,.315-3.014,9.312,9.312,0,0,1,2.908-1.781.869.869,0,0,1,1.059.289.755.755,0,0,1,.474.522A3.531,3.531,0,0,1,4437.717,2243.567Zm24.323-3.609c-1.571-.1-3.806-1.165-3.951-2.952a2.366,2.366,0,0,1,1.825-2.512.645.645,0,0,1,.6-.2c.1.013.2.038.3.058a3.619,3.619,0,0,1,1.185.13.764.764,0,0,1,.52.48,4.667,4.667,0,0,1,2.022,1.908C4465.413,2238.6,4463.712,2240.064,4462.041,2239.958Zm3.381-10.71c-1.842,1.491-5.359,1.954-7.668,1.756-2.263-.194-5.232-1.956-2.66-4.17,2.229-1.918,6.8-3.1,9.477-1.593a.75.75,0,0,1,.33.373,2.315,2.315,0,0,1,1.13.824A2.04,2.04,0,0,1,4465.422,2229.248Z" transform="translate(-4405.063 -2215.968)" fill="#69cf62"/>
          </g>
          <path id="Path_925" data-name="Path 925" d="M4457.859,2240.244a15.432,15.432,0,0,0-11.4-11.331c-4.823-1.2-10.756-1.312-15.192,1.259a.7.7,0,0,0-.845.193,17.34,17.34,0,0,0-3.961,6.043c-.218.64.444,1.135,1.02,1.019,2.8-.564,5.29-2.185,8.1-2.887,3.325-.831,6.948-1.435,10.3-.418a13.326,13.326,0,0,1,7.829,6.775,35.836,35.836,0,0,1,2.826,7.179c.359,1.242.676,2.5.971,3.755a16.02,16.02,0,0,1,.207,3.4c.13,5.475.025,10.95-.1,16.423-.194,8.111-.41,16.227-.011,24.335.052,1.061.936,3.016.884,1.948-.526-10.714.279-21.4.672-32.1C4459.446,2257.53,4460.142,2248.354,4457.859,2240.244Z" transform="translate(-4415.525 -2221.91)" fill="#69cf62"/>
        </g>
        <g id="Group_1310" data-name="Group 1310" transform="translate(0 75.005)">
          <g id="Group_1309" data-name="Group 1309">
            <path id="Path_926" data-name="Path 926" d="M4414.615,2382.956a24.711,24.711,0,0,0-9.227-10.747,20.182,20.182,0,0,0-13.676-3.682c-4.271.557-6.153,3.1-9.241,5.3-.228-6.978-5.851-10.977-12.689-10.784a17.31,17.31,0,0,0-2.58.275,15.345,15.345,0,0,1,5.057,12.355.841.841,0,0,1-1.414.585c-3.707-3.086-5.807-7.719-9.635-10.638a21.219,21.219,0,0,0-4.713,4c5.024,2.185,9.544,7.037,9.09,11.658a.839.839,0,0,1-1.048.8,17.373,17.373,0,0,1-4.919-2.857,13.179,13.179,0,0,0-7.655-2.722,51.24,51.24,0,0,0-3.959,10.086c7.319-2.629,15.7-3.615,19.68,3.468a.85.85,0,0,1-.3,1.133c-5.108,3.681-11.773-1.919-16.88,2a11.42,11.42,0,0,0-3.218,4.165,20.345,20.345,0,0,0,.6,2.672,27.049,27.049,0,0,0,3.321,6.871c4.161-3.491,10.422-8.479,14.241-5.094a.836.836,0,0,1,0,1.171c-2.995,2.968-6.816,5.059-9.075,8.719-.239.388-.461.794-.675,1.208a23.169,23.169,0,0,1,3.714,6.1c.879,2.384.788,4.906,1.9,7.223a.847.847,0,0,0,1.133.3c4.73-2.062,9.766-3.007,14.814-3.9.151-3.031-1.261-5.679-2.571-9-.644-1.634-1.172-3.511-.418-5.208a4.279,4.279,0,0,1,7.22-1.258c3.082,3.409,3.364,9.144,1.947,14.323a50.381,50.381,0,0,0,10.23-3.052c.383-.168.753-.358,1.125-.543a13.037,13.037,0,0,0-.641-3c-.561-1.6-1.517-2.986-2.186-4.533a7.958,7.958,0,0,1-.225-6.859c1.363-2.895,4.434-4.945,7.2-2.424,3.337,3.045,3.086,7.933,1.736,12.875a45.927,45.927,0,0,0,9.076-11.087,21.025,21.025,0,0,0-7.237-12.977c-1.986-1.561-5.5-3.128-6.355-5.723-1.568-4.772,6.159-4.96,8.727-2.952,4.517,3.532,5.6,11.029,6.378,16.278.11.74.193,1.488.288,2.232.635-1.168,1.238-2.339,1.809-3.5C4415.465,2391.921,4416.489,2387.5,4414.615,2382.956Zm-44.2-1.222c-.118-.234-.234-.468-.351-.7-.476-.952.953-1.789,1.43-.836l.351.7C4372.323,2381.849,4370.894,2382.687,4370.417,2381.734Zm6.5-.645c-1.625.339-2.795-2.751-1.582-3.717a1.592,1.592,0,0,1,1.478-.2c.569.189,1.411.71,1.41,1.4C4378.218,2379.495,4378.014,2380.859,4376.913,2381.088Zm3.909,19.393a1.575,1.575,0,0,1-1.49-1.328c-.1-.759.816-2.277,1.7-1.7.592.389,1.412.871,1.421,1.678A1.365,1.365,0,0,1,4380.822,2400.481Zm12.558-5.353c-.222.9-2.236,1.063-2.812.462a3.772,3.772,0,0,1-.02-5.282.836.836,0,0,1,1-.13A4.343,4.343,0,0,1,4393.38,2395.129Z" transform="translate(-4347.289 -2363.032)" fill="#69cf62"/>
          </g>
          <path id="Path_927" data-name="Path 927" d="M4460.557,2388.571c-2.789-2.055-5.554-3.633-9.113-3.554a.828.828,0,0,0,0,1.656c3.269-.072,5.734,1.455,8.276,3.328C4460.58,2390.634,4461.407,2389.2,4460.557,2388.571Z" transform="translate(-4397.932 -2373.802)" fill="#69cf62"/>
          <path id="Path_928" data-name="Path 928" d="M4471.188,2398.964a3.187,3.187,0,0,1-.595-.739.829.829,0,0,0-1.43.836,4.764,4.764,0,0,0,.854,1.074C4470.794,2400.863,4471.967,2399.694,4471.188,2398.964Z" transform="translate(-4406.946 -2380.081)" fill="#69cf62"/>
          <path id="Path_929" data-name="Path 929" d="M4456.963,2422.111a3.537,3.537,0,0,0-.7-.5,10.555,10.555,0,0,0-1.6-1.169c-.611-.3-1.071.334-1.063.968a1.65,1.65,0,0,0,.552,1.158,2.879,2.879,0,0,0,1.152.617,2.024,2.024,0,0,0,1,.086.968.968,0,0,0,.739-.629A.551.551,0,0,0,4456.963,2422.111Z" transform="translate(-4399.381 -2391.124)" fill="#69cf62"/>
          <path id="Path_930" data-name="Path 930" d="M4460.889,2434.2v2.355c0,1.411,1.684.585,2.06-.128a2.623,2.623,0,0,0,.259-1.018,2.23,2.23,0,0,0-.2-1.247C4462.61,2433.438,4460.889,2432.944,4460.889,2434.2Z" transform="translate(-4402.951 -2397.526)" fill="#69cf62"/>
          <path id="Path_931" data-name="Path 931" d="M4452.1,2430.5a2.366,2.366,0,0,0-1.5-.574.639.639,0,0,0-.579.531.871.871,0,0,0,.364.644,5.319,5.319,0,0,0,1.321.877c.225.1.53.177.688-.014a.6.6,0,0,0,.092-.391,1.88,1.88,0,0,0-.085-.69A1.043,1.043,0,0,0,4452.1,2430.5Z" transform="translate(-4397.628 -2395.803)" fill="#69cf62"/>
          <path id="Path_932" data-name="Path 932" d="M4427.337,2446.394c-.34-1-1.94-.573-1.6.441.271.8,0,1.711.473,2.452a.878.878,0,0,0,.836.443c.658-.109.479-.795.487-1.252A5.964,5.964,0,0,0,4427.337,2446.394Z" transform="translate(-4385.706 -2403.599)" fill="#69cf62"/>
          <path id="Path_933" data-name="Path 933" d="M4383.412,2445.794c-.861.181-2.648,1.05-2.772,2.075a.248.248,0,0,0,.162.277.361.361,0,0,0,.16-.013l1.5-.357c.511-.121,1.681-.32,1.946-.852C4384.707,2446.318,4383.982,2445.674,4383.412,2445.794Z" transform="translate(-4363.629 -2403.577)" fill="#69cf62"/>
          <path id="Path_934" data-name="Path 934" d="M4386.31,2452.24a1.054,1.054,0,0,0-1.564.243,5.417,5.417,0,0,0-.712,2.969.632.632,0,0,0,.991.477,2.085,2.085,0,0,0,.456-.387l.75-.772a2.493,2.493,0,0,0,.71-1.038,1.237,1.237,0,0,0-1.546-1.5,1.309,1.309,0,0,1,1.051.138" transform="translate(-4365.277 -2406.625)" fill="#69cf62"/>
          <path id="Path_935" data-name="Path 935" d="M4377.248,2465.932a4.416,4.416,0,0,0-.211,2.031c.126,1.045,1.783,1.058,1.656,0a3.33,3.33,0,0,1,.152-1.591C4379.2,2465.366,4377.6,2464.934,4377.248,2465.932Z" transform="translate(-4361.848 -2413.174)" fill="#69cf62"/>
          <path id="Path_936" data-name="Path 936" d="M4387.516,2471.321a.829.829,0,0,0,0,1.656A.829.829,0,0,0,4387.516,2471.321Z" transform="translate(-4366.607 -2416.092)" fill="#69cf62"/>
          <path id="Path_937" data-name="Path 937" d="M4425.873,2460.312a.829.829,0,0,0,0,1.656A.829.829,0,0,0,4425.873,2460.312Z" transform="translate(-4385.402 -2410.698)" fill="#69cf62"/>
          <path id="Path_938" data-name="Path 938" d="M4430.762,2464.284a.866.866,0,0,0-.67-.711l-.146-.035c-1.22-.287-1.171,1.592-.962,2.3.094.319.295.662.625.7a.848.848,0,0,0,.728-.416A2.634,2.634,0,0,0,4430.762,2464.284Z" transform="translate(-4387.262 -2412.264)" fill="#69cf62"/>
          <path id="Path_939" data-name="Path 939" d="M4460,2445.3l.032,0c-.229-1.041-1.825-.6-1.6.44a1.515,1.515,0,0,0,.395.728C4459.527,2447.285,4460.694,2446.109,4460,2445.3Z" transform="translate(-4401.74 -2403.054)" fill="#69cf62"/>
          <path id="Path_940" data-name="Path 940" d="M4479.175,2409.592l-.182-.181a.829.829,0,0,0-1.171,1.171l.181.181A.829.829,0,0,0,4479.175,2409.592Z" transform="translate(-4411.129 -2385.637)" fill="#69cf62"/>
        </g>
        <g id="Group_1312" data-name="Group 1312" transform="translate(70.254 63.217)">
          <g id="Group_1311" data-name="Group 1311">
            <path id="Path_941" data-name="Path 941" d="M4575.062,2365.185c-1.053-3.985-2.06-9.085-5.734-11.589-3.538-2.411-8.24-.985-11.542,1.181a16.494,16.494,0,0,0-4.588,4.462c-1.708,2.511-2.509,5.542-5.137,7.213-4.241-4.348-.917-11.978-3.129-17.236-2.008-4.772-7.348-6.48-11.945-7.738-9.492-2.6-25.132-3.087-30.1,7.681-.165.356-.052.95.429,1.013,6.481.851,15.732-2.776,21.032,2.561.72.725,2.7,3,2.644,4.115-.128,2.385-2.785,1.241-4.025.821a72.535,72.535,0,0,0-7.4-2.466c-6.2-1.4-13.607-1.721-19.029,2.15-4.637,3.311-6.354,8.851-6.884,14.282-.057.589.627.785,1.053.594,4.41-1.972,8.61-4.52,13.412-5.434a27.181,27.181,0,0,1,12.852.694c1.05.307,5.43,1.156,4.136,2.96-.439.613-3.253.25-3.95.211-3.385-.188-6.744-.434-10.14-.324-6.4.207-14.942,1.192-18.981,6.89-3.467,4.892-2.653,11.521-2.994,17.171a.7.7,0,0,0,1.053.594c3.814-2.157,6.921-5.3,10.688-7.524a41.663,41.663,0,0,1,13.976-4.771c2.077-.37,8.174-2.342,9.942-1.027,2.08,1.546-1.746,2.868-2.716,3.262-1.78.723-3.618,1.315-5.437,1.934-7.036,2.394-14.732,4.826-19.857,10.539-3.963,4.419-3.444,10.824-1.51,16.075a.7.7,0,0,0,1.027.409c8.478-5.405,16.332-11.7,24.611-17.391a20.238,20.238,0,0,1,5.241-2.969q1.956-1.137,2.327,1.221,1.772,1.5-.074,2.74a13.276,13.276,0,0,1-2.113,1.828,61.81,61.81,0,0,1-8.287,4.667c-5.139,2.64-11.09,5.6-13.723,11.073-3.287,6.827,1.294,12.877,5.527,18a.7.7,0,0,0,.983-.015c1.6-2.009,2.253-4.432,3.084-6.82a23.741,23.741,0,0,1,6.954-10.161,52.34,52.34,0,0,1,7.849-5.443c1.122-.661,5.081-3.27,5.478-.474.16,1.128-1.775,3.17-2.424,3.9-4.084,4.567-9.867,7.337-13.549,12.323-4,5.42-1.729,9.677,3.415,13.2a.7.7,0,0,0,1.037-.607c-.577-4.631,2.661-9.728,6.409-12.3a7.473,7.473,0,0,1,1.741-.95l1.485,2.68c-.067.5-1.248,1.241-1.644,1.609a12.169,12.169,0,0,0-2.705,3.352c-1.159,2.183-2.007,5.115-.176,7.172a10.421,10.421,0,0,0,3.822,2.178,30.04,30.04,0,0,1,6.293,3.923.707.707,0,0,0,1.156-.323c1.079-3.279,6-3.232,8.217-5.464,1.977-1.99,2.058-5.041,2.213-7.679.149-2.547.155-8.915-1.924-12.29.8-.895,1.545-.74,2.221.475a13.84,13.84,0,0,1,1.308,3.143,20.854,20.854,0,0,1,.713,5.721c.028,3.2-.415,6.394-.7,9.576a.7.7,0,0,0,.7.693c3.782-.265,9.918-3.035,10.58-7.2,1.025-6.464-4.031-13.419-7.31-18.45-1.767-2.71-5.281-6.752-5.626-10.093-.379-3.665,2.957-4.7,5.423-2.448a12.7,12.7,0,0,1,2.46,3.452,60.979,60.979,0,0,1,6.858,25.007.7.7,0,0,0,.882.667c2.872-.99,5.584-3.355,8.037-5.146,1.66-1.212,2.724-2.577,2.527-4.726-.226-2.469-1.707-4.729-2.768-6.9a76.722,76.722,0,0,0-6.039-10.548c-1.222-1.743-2.514-3.437-3.832-5.108-1.034-1.311-2.629-2.711-3.374-4.2-.413-.826.457-4.058,1.434-4.353.948-.286,2.526,1.158,3.174,1.752a21.9,21.9,0,0,1,2.43,2.8c4.979,6.438,9.074,14.213,9,22.532a.7.7,0,0,0,1.053.594c2.812-1.272,4.09-5.129,5.1-7.808a31.2,31.2,0,0,0,1.9-13.8c-.822-9.371-5.564-16.695-13.156-21.889a8.243,8.243,0,0,1,3.667.113,6.3,6.3,0,0,1,2.929,1.7c1,1.032,1.554,2.223,2.712,3.107a.7.7,0,0,0,1.089-.158C4578.854,2375.327,4576.127,2369.216,4575.062,2365.185Zm-38.814,20.868a5.133,5.133,0,0,1-.824.668,2.768,2.768,0,0,1-2.47.625c-.12-.01-.234.007-.356-.015a.69.69,0,0,1-.484-.456c-.015-.014-.028-.03-.042-.044a.652.652,0,0,1-.455-.987,3.264,3.264,0,0,1,1.459-1.23c.054-.051.1-.107.155-.156a.688.688,0,0,1,.676-.134,5.716,5.716,0,0,1,1.509-.161.711.711,0,0,1,.671.508,2.049,2.049,0,0,1,.055.333c.03.025.063.037.092.065A.7.7,0,0,1,4536.247,2386.053Zm-.466-5.427c-.3.016-.622.018-.948.014a7.453,7.453,0,0,1-3.045.138,2.285,2.285,0,0,1-1.833-1.449,1.208,1.208,0,0,1-.43-1.5c.414-.841,1.647-1.136,2.46-1.358a.663.663,0,0,1,.358,0c2.023-.487,4.67.146,5.678,1.595C4539.224,2379.792,4537.2,2380.55,4535.781,2380.626Zm5.429-9.693c-.076.808-.928,1.23-1.641,1.357a5.01,5.01,0,0,1-1.994-.108,4.526,4.526,0,0,1-2.211-.528,1.711,1.711,0,0,1-.861-1.271.572.572,0,0,1,0-.071,1.619,1.619,0,0,1,1.192-1.693,5.745,5.745,0,0,1,4.309.624C4540.6,2369.595,4541.282,2370.162,4541.21,2370.933Zm12.7,7.818a1.467,1.467,0,0,1-.587.958.5.5,0,0,1-.253.35,1.9,1.9,0,0,1-2.244.455,1.414,1.414,0,0,1-.75-1.245,1.855,1.855,0,0,1-.154-1.383.922.922,0,0,1,.056-.086,1.428,1.428,0,0,1,1.083-1.1C4552.212,2376.37,4554.073,2377.407,4553.91,2378.751Z" transform="translate(-4485.039 -2339.918)" fill="#69cf62"/>
          </g>
          <path id="Path_942" data-name="Path 942" d="M4608.2,2369.571c-6.381,2.249-8.936,9.683-13.6,14.055a.582.582,0,0,0-.306.291c-.015.014-.029.029-.045.043a.687.687,0,0,0-.244.668c-1.605,3.777-2.47,7.761-3.631,11.692-.32,1.084-.66,2.16-1,3.234-.083.088-.147.192-.234.276a.729.729,0,0,0-.149.921c-1.03,3.175-2.087,6.337-2.914,9.58a125.185,125.185,0,0,0-3.184,13.966c-.676,4.938-.108,9.375-1.07,14.272-.172.875.252,1.765.425.887.814-4.142,1.208-8.325,1.7-12.511a111.269,111.269,0,0,1,3.159-15.05c.772-2.967,1.4-6.165,2.338-9.034.877-2.688,3-5.02,3.835-7.659a30.737,30.737,0,0,1,5.215-9.246c4.748-6.4,9.786-14,18.9-10.532.639.243,1.129-.461,1.019-1.019C4617.521,2369.876,4612.212,2368.158,4608.2,2369.571Z" transform="translate(-4532.44 -2354.211)" fill="#69cf62"/>
        </g>
        <g id="Group_1313" data-name="Group 1313" transform="translate(161.084 65.149)">
          <path id="Path_943" data-name="Path 943" d="M4668.861,2369.786c.354-1.5,1.081-3.163,2.569-3.543a3.027,3.027,0,0,1,3.3,1.853,5.873,5.873,0,0,1,.015,4.028c-.395,1.313-1.023,2.547-1.434,3.855a12.207,12.207,0,0,0-.438,5.08,23.477,23.477,0,0,0,3.241,2.194,29.7,29.7,0,0,0,5.8,2.372,15.025,15.025,0,0,1-.6-2.35,5.612,5.612,0,0,1,.183-3.049,2.654,2.654,0,0,1,2.345-1.729c1.776.032,2.659,2.148,2.973,3.9a36.131,36.131,0,0,0,.953,4.547c2.7.425,5.437.666,8.113.836,3.03.194,4.884-.221,6.159-1.4,1.207-1.119,1.908-2.94,2.577-5.609,1.149-4.545,2.379-9,2.674-13.564a16.849,16.849,0,0,0-2.086-1.987c-1.5-1.195-3.243-2.2-4.223-3.853s-.737-4.24,1.044-4.952a4.11,4.11,0,0,1,3.64.787c.237.155.439.352.664.521-1.227-4.79-3.467-9.56-7.682-12.272-6.445-4.128-16.138-.488-17.769,6.388a8.848,8.848,0,0,0-.247,2.627,15.244,15.244,0,0,0-3.155-1.921c-3.416-3.076-12.173,3.922-13.491,7.148-2.289,5.554.322,11.965,4.382,16.92A21.852,21.852,0,0,1,4668.861,2369.786Z" transform="translate(-4663.131 -2343.706)" fill="#69cf62"/>
        </g>
      </g>
      <path id="Path_944" data-name="Path 944" d="M4551.046,2611.809l7.149-47.1h-79.241l7.149,47.1c.013.083.026.167.039.25,1.888,11.832,12.547,20.278,24.529,20.278h15.806c11.982,0,22.641-8.447,24.529-20.278C4551.021,2611.976,4551.033,2611.893,4551.046,2611.809Z" transform="translate(-4411.803 -2386.845)" fill="#fd4f31"/>
      <g id="Group_1315" data-name="Group 1315" transform="translate(102.501 177.863)">
        <path id="Path_945" data-name="Path 945" d="M4579.982,2564.708l-7.149,47.1c-.013.083-.025.167-.039.25-1.888,11.832-12.548,20.278-24.529,20.278h12.174c11.982,0,22.641-8.447,24.529-20.278.013-.083.026-.167.039-.25l7.149-47.1Z" transform="translate(-4548.265 -2564.708)" fill="#d24242" opacity="0.78"/>
      </g>
    </g>
    <path id="Path_946" data-name="Path 946" d="M4139.631,2150.6c5.659-.553,11.379-3.41,16.785-1.646a8.764,8.764,0,0,0,2.581.676,1.927,1.927,0,0,0,2-1.417c.12-.876-.615-1.616-1.308-2.165a31.537,31.537,0,0,0-32.519-3.623C4118.321,2146.686,4136.475,2150.911,4139.631,2150.6Z" transform="translate(-195.97 -199.784)" fill="#f6bd96"/>
    <path id="Path_947" data-name="Path 947" d="M4016.043,1962.89a21.5,21.5,0,0,0,1.34,12.44,4.108,4.108,0,0,1,.523,2.98c-.426,1.115-1.756,1.533-2.918,1.81" transform="translate(-142.182 -113.252)" fill="none" stroke="#e7a579" stroke-linecap="round" stroke-miterlimit="10" stroke-width="1.651"/>
    <path id="Path_948" data-name="Path 948" d="M3991.082,1971.093a4.752,4.752,0,0,0,5.692-.029" transform="translate(-130.468 -117.257)" fill="none" stroke="#39395c" stroke-linecap="round" stroke-miterlimit="10" stroke-width="1.651"/>
    <path id="Path_949" data-name="Path 949" d="M4022.233,1969.168a3.029,3.029,0,0,0,2.984-.171" transform="translate(-145.731 -116.244)" fill="none" stroke="#39395c" stroke-linecap="round" stroke-miterlimit="10" stroke-width="1.651"/>
    <path id="Path_950" data-name="Path 950" d="M3988.772,1960.308c2.237-1.1,5.691-1.166,7.8.308" transform="translate(-129.336 -111.587)" fill="none" stroke="#39395c" stroke-linecap="round" stroke-miterlimit="10" stroke-width="1.651"/>
    <path id="Path_951" data-name="Path 951" d="M4020.94,1960.617a6.784,6.784,0,0,1,4.3-1.132" transform="translate(-145.098 -111.573)" fill="none" stroke="#39395c" stroke-linecap="round" stroke-miterlimit="10" stroke-width="1.651"/>
  </g>
</svg>
