<svg xmlns="http://www.w3.org/2000/svg" width="522.214" height="460.924" viewBox="0 0 522.214 460.924">
  <g id="Group_1303" data-name="Group 1303" transform="translate(-2695.587 -626.259)">
    <g id="Group_1282" data-name="Group 1282" transform="translate(2702.126 761.682)">
      <path id="Path_879" data-name="Path 879" d="M2749.927,1051.718l-42.9,153.309a4.38,4.38,0,0,0,8.409,2.456l47.741-156.877C2758.768,1051.082,2754.352,1051.476,2749.927,1051.718Z" transform="translate(-2706.866 -940.025)" fill="#262728"/>
      <g id="Group_1280" data-name="Group 1280" transform="translate(177.145 28.374)">
        <path id="Path_880" data-name="Path 880" d="M3027.118,915.271l24.342,197.846a3.672,3.672,0,0,1-7.27,1.032l-31.661-196.809a7.369,7.369,0,0,1,14.55-2.34C3027.092,915.081,3027.108,915.191,3027.118,915.271Z" transform="translate(-3012.435 -908.802)" fill="#262728"/>
      </g>
      <g id="Group_1281" data-name="Group 1281" transform="translate(61.309 0)">
        <path id="Path_881" data-name="Path 881" d="M2931.3,906.951l-113.344-32.642a7.369,7.369,0,0,1,4.079-14.162c.089.026.206.063.294.092l111.882,37.346a4.9,4.9,0,0,1-2.91,9.366Z" transform="translate(-2812.621 -859.858)" fill="#262728"/>
      </g>
    </g>
    <g id="Group_1283" data-name="Group 1283" transform="translate(2695.587 626.259)">
      <path id="Path_882" data-name="Path 882" d="M3072.631,629.329a7.428,7.428,0,0,0-1.124-.684c-2.709-1.344-6.059-1.435-9.018-1.786a72.124,72.124,0,0,0-10.178-.241c-6.221.144-12.422.708-18.642.868-14.333.369-28.691.176-43.027.056-20.283-.17-42.907-4.616-62.088,4.1-17.122,7.78-23.622,26.911-27.868,43.865-5.826,23.264-10.731,46.766-15.6,70.243a246.291,246.291,0,0,1-13.35,44.485c-3.109,7.528-6.5,14.973-9.287,22.628-1.678,4.6-2.891,9.371-4.609,13.942-11.651.737-23.282,3.829-34.926,4.587a370.109,370.109,0,0,0-41.137,4.973c-21.121,3.777-43.882,7.075-63.412,16.335-7.875,3.733-16.673,9.075-20.009,17.566-3.191,8.12-3.281,20.258-2.005,28.742,1.032,6.869,5.989,6.611,12.627,7.95,12.2,2.463,24.792,1.94,37.013,4.29,18.021,3.465,36.006,7.118,53.976,10.844q13.48,2.8,26.952,5.635c8.59,1.806,16.992,4.279,25.741,5.247,9.287,1.027,18.607-1.381,27.723-3.216,17.267-3.477,34.669-6.743,52.111-9.208,18.734-2.647,37.669-2.5,56.4-5.27,9.086-1.345,19.513-.768,27.725-5.493,10.731-6.175,10.481-21.111,11.3-32.114,1.053-14.174,3.944-28.079,6.958-41.943,6.009-27.642,10.766-55.513,16.334-83.242,5.5-27.418,10.791-55,17.589-82.132,1.535-6.125,4.43-11.851,6.351-17.857,1.376-4.3,2.39-8.954,1.884-13.489-.239-2.14-1.169-3.8-1.785-5.777A7.351,7.351,0,0,0,3072.631,629.329Z" transform="translate(-2695.587 -626.259)" fill="#ffd126"/>
      <path id="Path_883" data-name="Path 883" d="M3283.052,648.714c-.452-3.968-2.22-7.458-4.678-6.394-9.15.682-15.458,10.7-19.814,17.759-7.732,12.52-11.336,26.6-14.818,40.753-4.363,17.74-10.078,35.111-14.546,52.832-4.433,17.578-8.336,35.283-12.158,53-5.43,25.166-14.961,48.112,2.853,70.994,2.194,2.818,5.634,5.67,8.954,4.357,4.943-1.954,6.471-15.236,7.385-19.705,3.546-17.36,7.079-34.722,10.712-52.065,8.584-40.977,18.846-81.493,29.673-121.926C3280.022,675.6,3284.571,662.071,3283.052,648.714Z" transform="translate(-2911.606 -632.928)" fill="#df880b"/>
      <path id="Path_884" data-name="Path 884" d="M2944.433,1003.595c-25.461-14.847-56.573-21.453-85.916-19.63-17.417,1.082-34.764,5.094-51.849,8.447-9.331,1.831-18.687,3.555-28,5.448-3.863.785-7.737,1.6-11.521,2.71-4.514,1.322-8.562,3.594-13.382,3.637a1.4,1.4,0,0,0-1.414,1.2,1.419,1.419,0,0,0-2.458-.751l-1.187,1.4a1.565,1.565,0,0,0,0,2.151c3.413,3.733,7.131,4.717,12.142,4.464,7.928-.4,15.9-1.172,23.8-2.012,17.624-1.874,35.143-3.219,52.876-3.4,35.4-.37,70.8,1.854,106.148-.822A1.535,1.535,0,0,0,2944.433,1003.595Z" transform="translate(-2717.731 -776.47)" fill="#df880b" opacity="0.359"/>
      <path id="Path_885" data-name="Path 885" d="M3044.449,1091.685l52.694-7.038c6.77-.9,13.715-1.864,19.707-5.143,8.4-4.6,18.7-21.959,8.747-30.122-6.711-5.506-20.349-1.945-27.98-.562-12.725,2.306-25.429,4.278-38.21,6.249-15.92,2.454-31.735,5.6-47.665,7.97-8.777,1.3-17.61,2.173-26.418,3.238-6.209.75-18.175.4-22.595,5.744-2.666,3.225-1.651,15.163-1.325,19.42,1.347,17.577,46.542,5.12,56.584,3.779Z" transform="translate(-2807.11 -802.838)" fill="#df880b"/>
    </g>
    <g id="Group_1287" data-name="Group 1287" transform="translate(2851.178 787.954)">
      <g id="Group_1284" data-name="Group 1284" transform="translate(0 7.727)">
        <path id="Path_886" data-name="Path 886" d="M3049.606,928.019l-77.061,253.221a4.38,4.38,0,0,1-8.408-2.455l71.326-254.9a7.367,7.367,0,0,1,14.19,3.97C3049.641,927.9,3049.619,927.977,3049.606,928.019Z" transform="translate(-2963.975 -918.504)" fill="#262728"/>
      </g>
      <g id="Group_1285" data-name="Group 1285" transform="translate(141.686 31.378)">
        <path id="Path_887" data-name="Path 887" d="M3223.06,965.772l24.343,197.846a3.672,3.672,0,0,1-7.27,1.032l-31.661-196.809a7.368,7.368,0,0,1,14.55-2.34C3223.035,965.581,3223.05,965.691,3223.06,965.772Z" transform="translate(-3208.377 -959.302)" fill="#262728"/>
      </g>
      <g id="Group_1286" data-name="Group 1286" transform="translate(51.642)">
        <path id="Path_888" data-name="Path 888" d="M3181.4,955.274l-123.022-35.649a7.368,7.368,0,1,1,4.1-14.155c.082.024.191.058.271.084l121.56,40.354a4.9,4.9,0,0,1-2.91,9.366Z" transform="translate(-3053.054 -905.176)" fill="#262728"/>
      </g>
    </g>
    <g id="Group_1302" data-name="Group 1302" transform="translate(3038.242 758.241)">
      <g id="Group_1291" data-name="Group 1291" transform="translate(38.198 175.699)">
        <g id="Group_1288" data-name="Group 1288" transform="translate(45.145 24.488)">
          <path id="Path_889" data-name="Path 889" d="M3432.494,1309.991c-.066.006-.135.009-.2.008a1.893,1.893,0,0,1-1.872-1.917l1.267-106.973a1.894,1.894,0,0,1,3.788.045l-1.268,106.973A1.893,1.893,0,0,1,3432.494,1309.991Z" transform="translate(-3430.418 -1199.239)" fill="#3a3942"/>
        </g>
        <g id="Group_1289" data-name="Group 1289" transform="translate(0 19.534)">
          <path id="Path_890" data-name="Path 890" d="M3354.44,1324.4a1.954,1.954,0,0,1-.381-.037,1.9,1.9,0,0,1-1.476-2.236l26.521-129.92a1.894,1.894,0,1,1,3.711.759l-26.52,129.92A1.893,1.893,0,0,1,3354.44,1324.4Z" transform="translate(-3352.543 -1190.693)" fill="#3a3942"/>
        </g>
        <g id="Group_1290" data-name="Group 1290" transform="translate(79.345 19.534)">
          <path id="Path_891" data-name="Path 891" d="M3517.824,1324.4a1.893,1.893,0,0,1-1.854-1.515l-26.521-129.92a1.894,1.894,0,1,1,3.711-.759l26.52,129.92a1.9,1.9,0,0,1-1.476,2.236A1.952,1.952,0,0,1,3517.824,1324.4Z" transform="translate(-3489.411 -1190.693)" fill="#3a3942"/>
        </g>
        <ellipse id="Ellipse_140" data-name="Ellipse 140" cx="41.529" cy="15.112" rx="41.529" ry="15.112" transform="translate(10.934)" fill="#3a3942"/>
        <ellipse id="Ellipse_141" data-name="Ellipse 141" cx="37.671" cy="9.803" rx="37.671" ry="9.803" transform="translate(17.224 66.782)" fill="none" stroke="#3a3942" stroke-miterlimit="10" stroke-width="5.96"/>
      </g>
      <g id="Group_1299" data-name="Group 1299" transform="translate(0)">
        <g id="Group_1298" data-name="Group 1298">
          <g id="Group_1292" data-name="Group 1292" transform="translate(29.273)">
            <path id="Path_892" data-name="Path 892" d="M3414.077,944.331a.834.834,0,0,0-.379-.587,1.237,1.237,0,0,0-.435-.246,5.893,5.893,0,0,0-1.137-.19.119.119,0,0,0-.113,0,10.267,10.267,0,0,0-5.873,1.572,25.046,25.046,0,0,0-8.448,8.581c-.246-2.159-.531-4.319-.871-6.478-.341-2.387-.758-4.774-1.213-7.142-.056-.379-.132-.739-.208-1.118-.284-1.459-.587-2.917-.89-4.376q.739-.569,1.421-1.136c3.221-2.634,5.987-5.342,7.615-9.623a21.881,21.881,0,0,0,.72-2.33c.549-2.33.549-4.944-2.444-4.774-3.353.209-5.834,3.808-7.52,6.4l-.114.17c-.568.91-1.137,1.913-1.648,2.936-.777-2.9-1.61-5.778-2.519-8.657-.682-2.254-1.44-4.528-2.217-6.763-.075-.265-.17-.511-.265-.776a.731.731,0,0,1,.19-.152c.89-.758,1.932-1.307,2.766-2.14a10.66,10.66,0,0,0,1.8-2.311,11.374,11.374,0,0,0,.739-1.326,26.25,26.25,0,0,0,2.027-7.634,17.693,17.693,0,0,0,.057-5.057c-.3-1.781-1.231-3.2-3.107-2.993-3.637.435-5.058,5.948-6.024,8.847a51.661,51.661,0,0,0-1.345,5.55,106.134,106.134,0,0,0-10.495-18.792c3.183-1.895,4.66-7.1,4.111-10.836a13.8,13.8,0,0,0-1.345-4.432,21.744,21.744,0,0,0-2.709-3.978,28.291,28.291,0,0,0-3.712-3.334,28.594,28.594,0,0,0-4.244-2.539.9.9,0,0,0-1.364.928c1.06,5.759,1.743,11.537,3.353,16.632a72.141,72.141,0,0,0-7.88-7.71,25.294,25.294,0,0,0-8.354-11.2,17.6,17.6,0,0,0-14.227-2.936.879.879,0,0,0-.549,1.213,13.056,13.056,0,0,0,2.273,3.485,13.5,13.5,0,0,0,1.4,1.345,15.892,15.892,0,0,0,1.478,1.307c2.065,1.534,4.3,2.974,6.365,4.224a24.584,24.584,0,0,0,3.694,1.951c1.231.644,2.576,1.156,3.884,1.762,1.194.606,2.425,1.1,3.618,1.686a14.5,14.5,0,0,1,3.315,2.349,72.132,72.132,0,0,1,5.57,6.194,17.742,17.742,0,0,0-4.717-2.046,14.172,14.172,0,0,0-4.925-.644,11.537,11.537,0,0,0-8.506,4.205.789.789,0,0,0,.095,1.27,45.512,45.512,0,0,0,9.946,3.2c3.978.7,8.164.928,11.5-1.459l.19.246a.506.506,0,0,0,.151.132,107.386,107.386,0,0,1,11.082,20.213,24.723,24.723,0,0,0-4.035-3.069,25.084,25.084,0,0,0-6.668-3.278,19.294,19.294,0,0,0-7.312-.89,1.014,1.014,0,0,0-.948,1.136,8.268,8.268,0,0,0,3.126,5.3,8.077,8.077,0,0,0,.776.625,23.462,23.462,0,0,0,5,2.69,13.459,13.459,0,0,0,2.349.7c3.2.739,6.819.909,9.358,3.088,4.035,3.561,3.164,10.855,5.437,15.477.038.095.095.17.133.265-.056-.095-.113-.208-.17-.3a27.789,27.789,0,0,0-12.844-12.01,14.274,14.274,0,0,0-4.225-1.118,1.066,1.066,0,0,0-1.118.739c-.625,4.736,2.027,8.582,5.759,11.877.417.36.834.7,1.269,1.042a49.008,49.008,0,0,0,4.433,3.126c.587.36,1.155.72,1.742,1.08,1.78,1.06,3.523,2.008,5.115,2.841a2.126,2.126,0,0,0,.284.152c.3.151.625.3.909.454a.8.8,0,0,0,.284.075.708.708,0,0,0,.284,0,.383.383,0,0,0,.152.076q.511,2.416.966,4.831c.019.114.038.227.057.322.493,2.576.928,5.133,1.288,7.71.246,1.573.454,3.126.625,4.7.038.19.057.4.075.587-.114-.17-.208-.322-.322-.492-.265-.379-.53-.758-.815-1.137-.417-.568-.871-1.137-1.364-1.686a22.543,22.543,0,0,0-4.414-3.884,15.173,15.173,0,0,0-4.849-2.235h-.019a10.769,10.769,0,0,0-3.637-.341.885.885,0,0,0-.758.8.585.585,0,0,0,.076.474c.606.947,1.25,1.932,1.951,2.936,2.557,3.675,5.74,7.483,9.775,9.794a13.059,13.059,0,0,0,1.629.814.342.342,0,0,0,.17.076,8.223,8.223,0,0,0,1.194.473.069.069,0,0,0,.057.019,7.4,7.4,0,0,0,.852.265,10.822,10.822,0,0,0,1.118.284c.209.038.341,1.591.417,3.466v.019c.057,1.1.094,2.292.113,3.391.057,1.686.057,3.107.076,3.448v.285a5.422,5.422,0,0,1,.019.549c.019.284.019.587.019.871a4.587,4.587,0,0,1,.019.511c.038,1.346.057,2.671.057,4.016,0,.758,0,1.535-.019,2.311.019.834,0,1.687-.019,2.539-.019.758-.038,1.515-.057,2.255,0,.208,0,.4-.019.587-.038,1.439-.1,2.86-.189,4.262a75.241,75.241,0,0,1-1.231,10.1v.019c-.133.625-.265,1.25-.435,1.875-.02.171-.076.36-.114.53-.114.474-.246.947-.342,1.44.246,0,.493.019.739.019h.417c.644.019,1.307.038,1.97.019v-.038c.151-4.66.55-9.32.834-14,.038-.549.076-1.1.094-1.667.057-.871.1-1.743.133-2.615.038-.89.076-1.8.094-2.69,0-.227.019-.454.019-.682v-.19c.019-.492-.037-2.273-.113-4.622-.019-.625-.038-1.269-.057-1.951v-.379c-.038-1-.076-2.046-.114-3.088,0-.227-.019-.455-.038-.7-.037-1.4-.094-2.823-.151-4.13-.038-1.383-.095-2.671-.133-3.732-.095-1.78-.151-2.936-.19-2.936.455-.094.909-.189,1.345-.322a18.7,18.7,0,0,0,4.433-1.818,22.261,22.261,0,0,0,2.368-1.478c.3-.208.625-.454.928-.682a13.365,13.365,0,0,0,1.7-1.554,8.162,8.162,0,0,0,.644-.739,49.186,49.186,0,0,0,4.338-6.762A.99.99,0,0,0,3414.077,944.331Z" transform="translate(-3337.148 -853.923)" fill="#69cf62"/>
          </g>
          <g id="Group_1293" data-name="Group 1293" transform="translate(86.471 43.533)">
            <path id="Path_893" data-name="Path 893" d="M3528.778,942.02c-2.784-3.656-8.751-4.527-13.9-4.641a31.3,31.3,0,0,0-8.676,1.269c-2.633.663-4.944,1.723-7.691,2.179a73.231,73.231,0,0,0-8.013,1.856c5.494-3.561,11.65-7.8,11.081-13.09-.057-.474-.758-.7-1.363-.512a30.873,30.873,0,0,0-11.253,6.176c-3.258,2.917-4.963,6.422-3.788,9.187l-.285.133c-.075.019-.113.075-.17.094a51.649,51.649,0,0,0-10.04,5.474,56.03,56.03,0,0,0-8.562,7.539c.777-1.61,1.4-3.372,1.914-4.47,1.951-4.528,4.073-9.036,5.077-13.506.133-.569-.436-.777-1.118-.55a14.38,14.38,0,0,0-6.9,5.02,18.758,18.758,0,0,0-3.258,6.9c-.891,3.865.739,7.388-.285,11.158-.663,2.444-2.349,4.641-4.11,6.914a33.212,33.212,0,0,0-3.846,5.721,11.841,11.841,0,0,0-.53,1.25c.152-.417.284-.815.417-1.25a61.888,61.888,0,0,0,2.236-9.718,30.961,30.961,0,0,0,.208-10,.617.617,0,0,0-1-.322c-4.564,3.012-6.819,8.088-7.406,13.09a30.479,30.479,0,0,0,.094,8.524,40.171,40.171,0,0,0,1.08,5.153,1.077,1.077,0,0,0,.076.265c.076.285.171.569.228.834a.7.7,0,0,0,.284.36c.019.038.019.094.038.133-.531,1.079-1.042,2.16-1.516,3.258-.587,1.27-1.155,2.576-1.686,3.865q-1.876,4.433-3.41,9c-.038.133-.094.246-.132.379,0-.095-.019-.19-.019-.284a46.029,46.029,0,0,0-.455-4.793,27.838,27.838,0,0,0-.531-2.842c-.094-.36-.189-.719-.284-1.061q-.142-.483-.284-.966a12.256,12.256,0,0,0-1.761-3.637,6.654,6.654,0,0,0-1.819-1.819.373.373,0,0,0-.284-.057.8.8,0,0,0-.247.1,1.172,1.172,0,0,0-.587.852c-.17,1.1-.3,2.254-.379,3.41-.057.606-.075,1.212-.094,1.818-.019.966-.019,1.951.037,2.9a.086.086,0,0,0,0,.095,29.74,29.74,0,0,0,.417,3.5,17.537,17.537,0,0,0,1.554,4.907,3.09,3.09,0,0,0,.265.492,1.743,1.743,0,0,0,.171.322c.076.132.152.265.227.379a9.456,9.456,0,0,0,1.648,1.914.9.9,0,0,0,.133.114,3.245,3.245,0,0,0,.492.4c-.151.511-.3,1.042-.435,1.553-.17.644-.36,1.307-.511,1.951-.285,1.042-.531,2.084-.777,3.145q-.285,1.25-.569,2.558c-.038.189-.075.4-.114.606-.3,1.421-.587,2.841-.814,4.281-.3,1.7-.568,3.41-.8,5.133-.208,1.515-.379,3.031-.531,4.565-.133,1.4-.246,2.8-.341,4.224h.265c.247,0,.493.019.739.019h.417a129.58,129.58,0,0,1,1.686-14c.246-1.326.492-2.633.758-3.959.019-.095.057-.209.076-.322.189-.909.378-1.8.606-2.709.019-.132.057-.246.076-.378.55-2.349,1.155-4.66,1.838-6.971a13,13,0,0,0,4.281-.057,22.963,22.963,0,0,0,3.372-.8,14.376,14.376,0,0,0,1.913-.758c2.027-1,3.77-2.424,5.816-3.656a.89.89,0,0,0,.17-1.4c-1.515-1.629-3.978-2.065-6.611-1.591a13.714,13.714,0,0,0-2.216.587,14.1,14.1,0,0,0-2.255,1,15.524,15.524,0,0,0-3.031,2.065c.341-1.061.72-2.1,1.1-3.145.814-2.311,1.724-4.6,2.69-6.857.871-2.141,1.838-4.244,2.86-6.309.1-.227.209-.474.323-.7.114-.019.208-.019.322-.038a32.412,32.412,0,0,0,7.767-1.364,18.638,18.638,0,0,0,2.879-1.25c1.061-.606,2.842-1.535,3.58-2.69a1.8,1.8,0,0,0-.265-2.444c-1.724-1.913-5.134-1.269-7.6-.492-.607.19-1.251.4-1.895.663-.322.133-.644.266-.966.417.189-.341.4-.662.587-1a107.078,107.078,0,0,1,8.335-12.37c.966.17,1.8.682,2.747.871a12.558,12.558,0,0,0,3.485.133,55.751,55.751,0,0,0,5.949-1,22.913,22.913,0,0,0,3.467-.89c1.117-.455,1.913-1.155,1.534-2.519a4.175,4.175,0,0,0-3.05-2.595,13.643,13.643,0,0,0-4.452-.4,18.823,18.823,0,0,0-4.792.853,50.681,50.681,0,0,1,7.824-6.554,49.2,49.2,0,0,1,8.979-4.793,6.89,6.89,0,0,0,3.031,3.3,17.568,17.568,0,0,0,4.338,1.895c4.414,1.175,9.263.019,13.81-1.439a.688.688,0,0,0,.246-1.231,26.728,26.728,0,0,0-12.787-5.3,85.57,85.57,0,0,1,10.267-1.8c7.9,2.33,15.894,4.489,24.361,1.553A.644.644,0,0,0,3528.778,942.02Z" transform="translate(-3435.813 -929.015)" fill="#69cf62"/>
          </g>
          <g id="Group_1294" data-name="Group 1294" transform="translate(0 38.72)">
            <path id="Path_894" data-name="Path 894" d="M3382.834,979.24c-2.349-.455-4.546,1.042-6.289,3.372a19.4,19.4,0,0,0-2.5,4.584,22.4,22.4,0,0,0-.871,2.708l-.019.019c-.019.094-.038.17-.057.265-.379-1.25-.758-2.5-1.156-3.75-.057-.171-.094-.322-.151-.493-1.269-4-2.652-7.937-4.187-11.821-.227-.644-.474-1.288-.739-1.913.265-.379.531-.777.814-1.156v-.019a17.945,17.945,0,0,0,3.391-7.937,9.824,9.824,0,0,0,.133-1.345,3.973,3.973,0,0,0,.038-.492c.114-1.819-.057-5.418-1.742-6.384-.02-.019-.02-.038-.038-.038a1.81,1.81,0,0,0-.91-.246,3.215,3.215,0,0,0-.587.057c-1.932.417-2.879,2.709-3.485,4.925q-.256.994-.454,1.875c-.114.511-.228,1.023-.322,1.572-.094.492-.171.985-.247,1.516a90.159,90.159,0,0,0-5.153-9.169c-1.117-1.724-2.273-3.372-3.523-4.982.379-.91,1.06-1.61,1.42-2.558a9.444,9.444,0,0,0,.53-3.656c-.019-.436-.057-.89-.114-1.345a24.277,24.277,0,0,0-1.591-5.7c-.095-.246-.189-.511-.322-.814a15.29,15.29,0,0,0-2.027-3.561c-1.137-1.439-2.6-2.463-4.016-1.819a2.342,2.342,0,0,0-1.307,1.989,7.729,7.729,0,0,0-.019,1.875,40.116,40.116,0,0,0,1.023,4.888c.4,1.553.853,3.277,1.4,4.944a50.825,50.825,0,0,0-17.409-11.726,5.459,5.459,0,0,0-.265-4.546,12.028,12.028,0,0,0-3.5-4.3,17.408,17.408,0,0,0-8.732-3.22,27.908,27.908,0,0,0-9.4.719c-.8.19-.928.89-.379,1.213,4.243,2.614,8.695,5.417,13.2,7.729a55.815,55.815,0,0,0-10.816-.512,33.434,33.434,0,0,0-12.882-2.008,25.169,25.169,0,0,0-12.6,3.922.627.627,0,0,0-.114,1.023c3.732,2.86,9.851,2.2,14.908,1.629a65.648,65.648,0,0,0,8.449-1.837c2.576-.626,4.982-1.459,7.786-1.307a50.141,50.141,0,0,1,8.051,1.061,16.378,16.378,0,0,0-8.676,2.936,7.923,7.923,0,0,0-3.5,6.611.775.775,0,0,0,.966.682,63.711,63.711,0,0,0,9.111-2.955c3.107-1.307,6.251-2.842,7.331-5.683l.284.114c.076.019.133.019.189.038a49.521,49.521,0,0,1,18.2,12.711,22.417,22.417,0,0,0-4.338-1.743c-4.4-1.421-8.771-1.364-12.218.53a.722.722,0,0,0-.17,1.118,9.553,9.553,0,0,0,4.489,3.031,25.6,25.6,0,0,0,5.626,1.231c3.24.435,6.876-.853,10.248,1.023,2.178,1.231,3.732,3.656,5,6.214,1.288,2.576,2.33,5.3,3.827,7.369a26.123,26.123,0,0,0-8.127-7.35,14.147,14.147,0,0,0-8.7-2.159.665.665,0,0,0-.587.814c1.042,3.978,3.978,6.706,7.635,9.225a87.379,87.379,0,0,0,10.078,5.664h.019c.455.209.891.417,1.326.625a.589.589,0,0,0,.246.114c.266.114.531.246.777.359a.648.648,0,0,0,.455.038,1.026,1.026,0,0,0,.133.057c1.629,4.092,3.106,8.259,4.451,12.465.511,1.535,1,3.088,1.478,4.641a27.559,27.559,0,0,0-2.5-2.879,15.539,15.539,0,0,0-1.516-1.44c-.284-.265-.568-.492-.852-.719a14.6,14.6,0,0,0-5.816-3.031,7.04,7.04,0,0,0-1.383-.151,5.033,5.033,0,0,0-1.515.114c-.436.094-.568.871-.246,1.288.189.266.4.531.606.8a62.885,62.885,0,0,0,4.85,5.835c.019.018.038.018.038.038a29.355,29.355,0,0,0,3.865,3.41,12.888,12.888,0,0,0,6.156,2.595c.227.853.455,1.724.682,2.576.1.3.171.606.246.91.417,1.667.834,3.334,1.212,5.02.152.606.284,1.194.417,1.8.17.739.341,1.478.493,2.235.227,1.023.455,2.065.644,3.107a.892.892,0,0,1,.057.322q.256,1.137.455,2.273c.114.549.227,1.1.3,1.667.758,4.016,1.383,8.07,1.894,12.124.095.644.189,1.288.265,1.951a4.107,4.107,0,0,0,.493-.019c.322.019.625,0,.928,0-.076-.587-.133-1.155-.227-1.724-.114-.947-.227-1.895-.379-2.842-.436-3.182-.947-6.365-1.534-9.51-.247-1.42-.511-2.86-.815-4.262-.189-1.042-.4-2.046-.625-3.068-.019-.114-.038-.209-.057-.3-.209-.966-.417-1.913-.625-2.86l-.568-2.387c-.246-1.023-.492-2.027-.739-3.031-.076-.3-.152-.587-.247-.89a1.267,1.267,0,0,0-.094-.36,2.545,2.545,0,0,0-.133-.511c-.265-1.1-.568-2.2-.871-3.3a9.044,9.044,0,0,0,1.212-.606,10.029,10.029,0,0,0,1.591-1.118,14.023,14.023,0,0,0,2.122-2.121,12.389,12.389,0,0,0,.985-1.25,12.906,12.906,0,0,0,1.516-2.86c.323-.834.587-1.686.834-2.576.322-1.194.606-2.444.928-3.713A1.2,1.2,0,0,0,3382.834,979.24Z" transform="translate(-3286.653 -920.713)" fill="#69cf62"/>
          </g>
          <g id="Group_1295" data-name="Group 1295" transform="translate(35.257 81.235)">
            <path id="Path_895" data-name="Path 895" d="M3403.507,1028.8a2.081,2.081,0,0,0-.474.094,6.331,6.331,0,0,0-1.686.568,1.447,1.447,0,0,0-.3.133c-.038.018-.057.038-.076.038a10.9,10.9,0,0,0-1.175.72,6.987,6.987,0,0,0-.985.739,11.167,11.167,0,0,0-1.4,1.288,20.054,20.054,0,0,0-3.77,5.285,96.57,96.57,0,0,0-4.319-9.187c.834-.909,1.629-1.819,2.33-2.728a17.771,17.771,0,0,0,1.061-1.477,12.319,12.319,0,0,0,1.7-3.883,8.949,8.949,0,0,0,.227-1.193,4.025,4.025,0,0,0,.038-1.061c-.038-.928-.4-1.667-1.516-1.44-.057.019-.114.038-.189.057a3.985,3.985,0,0,0-.493.171,8.537,8.537,0,0,0-3.656,3.884l-.019.019c-.323.568-.587,1.118-.815,1.61-.3.663-.625,1.4-.909,2.141a88.108,88.108,0,0,0-4.963-7.388c.531-.72,1.25-1.364,1.781-2.1.019-.037.038-.057.057-.095a9.061,9.061,0,0,0,1.155-2.2,4.111,4.111,0,0,0,.17-.436,15.5,15.5,0,0,0,.663-4.906c0-.227,0-.53-.019-.871-.114-1.439-.606-3.485-2.027-3.41a2.164,2.164,0,0,0-.871.266c-2.292,1.307-2.615,5.1-2.994,6.99-.189,1.156-.36,2.387-.436,3.562a34.479,34.479,0,0,0-8.373-7.539,8.354,8.354,0,0,0,.3-8.127c-1.875-3.561-6.308-4.66-9.661-4.148a.778.778,0,0,0-.474,1.118,71.619,71.619,0,0,0,5.3,8.979,35.151,35.151,0,0,0-5.57-1.572c-3.542-4.016-8.657-6.554-13.393-3.676a.844.844,0,0,0-.209.947c1.44,3.713,4.661,4.641,7.293,5.19a13.835,13.835,0,0,0,4.584-.151c1.421-.19,2.842-.644,4.263-.246a31.474,31.474,0,0,1,4.016,1.44,8.954,8.954,0,0,0-5.3,2.368,11.262,11.262,0,0,0-3.2,6.062c-.095.473.076.814.3.758a16.24,16.24,0,0,0,4.982-2.349,17.626,17.626,0,0,0,5.758-5.494l.152.075a.141.141,0,0,0,.095.019,34.6,34.6,0,0,1,8.657,7.994,13.983,13.983,0,0,0-2.879-.568,12.013,12.013,0,0,0-8.79,2.273,1.12,1.12,0,0,0-.512.929c.323,1.97,2.842,1.875,5.74,1.629,2.425-.246,5.721-1.838,8.07-1.231,3.107.814,3.164,5.134,5.266,6.914a13.942,13.942,0,0,0-12.843-2.349c-.323.114-.682.455-.682.719-.039,2.728,2.026,3.9,4.849,4.585a48.57,48.57,0,0,0,9.4.871.77.77,0,0,0,.209.019h.682a.882.882,0,0,0,.4-.1h.114a87.893,87.893,0,0,1,4.092,8.657,13.164,13.164,0,0,0-11.915-1.25c-.4.171-.587.644-.341.8,3.125,1.951,7.672,4.357,13.43,3.467.265.72.511,1.421.739,2.14.473,1.345.89,2.69,1.269,4.054a91.928,91.928,0,0,1,2.9,13.563c.133,0,.266.019.4.019h.3c.247,0,.493.019.739.019q-.114-.995-.284-1.989c-.114-.758-.246-1.516-.379-2.255-.246-1.459-.549-2.917-.89-4.357-.378-1.724-.833-3.429-1.326-5.134-.379-1.363-.814-2.727-1.269-4.073-.322-.947-.644-1.913-1-2.86a17.128,17.128,0,0,0,2.974-1.724,14.822,14.822,0,0,0,1.382-1.06c.55-.455,1.08-.947,1.592-1.459a5.5,5.5,0,0,0,.454-.511,5.116,5.116,0,0,0,.436-.511,11.339,11.339,0,0,0,.682-.985,15.215,15.215,0,0,0,.891-1.629,1.732,1.732,0,0,1,.133-.266c.36-.8.682-1.61,1.061-2.443C3404.416,1029.043,3404.038,1028.739,3403.507,1028.8Z" transform="translate(-3347.469 -994.049)" fill="#69cf62"/>
          </g>
          <g id="Group_1296" data-name="Group 1296" transform="translate(92.279 73.233)">
            <path id="Path_896" data-name="Path 896" d="M3523.138,990.3c-2.482-3.334-6.877-3.467-10.552-3.05a18.04,18.04,0,0,0-5.948,2.046c-1.762.891-3.239,2.046-5.153,2.615-1.857.568-3.713,1.193-5.531,1.894,3.5-3.277,7.1-7.9,5.8-13.052a.736.736,0,0,0-1.061-.417,20.6,20.6,0,0,0-7.046,6.252c-1.875,2.784-2.671,5.948-1.383,8.714l-.208.094a.408.408,0,0,0-.114.076,61.213,61.213,0,0,0-13.791,8.505,26.182,26.182,0,0,0,1.4-3.409,32.915,32.915,0,0,0,2.936-11.158.681.681,0,0,0-.909-.663,8.041,8.041,0,0,0-4.888,3.2,12.316,12.316,0,0,0-2.311,5.247c-.682,3.05.814,6.536-.057,9.4a10.066,10.066,0,0,1-3.6,4.527c-1.478,1.421-3.2,2.728-3.9,4.452,2.027-4.565,3.372-10.987,2.69-15.874a3.057,3.057,0,0,0-.076-.587.681.681,0,0,0-.852-.53,9.051,9.051,0,0,0-2.652,1.383,11.69,11.69,0,0,0-2.879,3.675,14.035,14.035,0,0,0-1.193,3.884,20.226,20.226,0,0,0-.114,5.948,26.714,26.714,0,0,0,1.079,5.323,1.081,1.081,0,0,0,.076.227c.076.227.133.474.209.7a.7.7,0,0,0,.265.342.276.276,0,0,0,.038.132,114.423,114.423,0,0,0-6.668,10.874,25.632,25.632,0,0,0-.625-6.025c-.076-.359-.17-.7-.284-1.061a12.682,12.682,0,0,0-2.557-5,7.956,7.956,0,0,0-.91-.871.712.712,0,0,0-1.061.417c-.114.474-.208.966-.284,1.458a24.132,24.132,0,0,0-.189,6.611c.019.246.038.474.076.7a12.514,12.514,0,0,0,3.845,7.558c-.341.682-.7,1.383-1.023,2.083q-1.022,2.075-1.989,4.205c-1.421,3.069-2.766,6.194-4.054,9.32-.36.871-.72,1.762-1.079,2.633-.265.644-.512,1.307-.777,1.951h1.042a4.081,4.081,0,0,0,.493-.019c.228-.568.474-1.155.7-1.724,1.629-4.054,3.353-8.089,5.19-12.067.644-1.4,1.307-2.785,1.989-4.168.322-.682.663-1.364,1-2.046a19.968,19.968,0,0,0,7.312,1.326c2.766.038,4.944-.815,7.426-1.383.511-.113.55-.606.208-1-2.728-3.24-9.244-3.675-13.336-1.97a110.59,110.59,0,0,1,6.858-11.2c3.467.644,6.63,1.345,9.926.777,1.554-.322,4.755-.663,2.842-3.069-1.534-1.989-4.528-2.444-6.744-2.5a14.579,14.579,0,0,0-2.557.114c1.193-1.5,2.481-2.936,3.751-4.357,1.363-1.364,2.614-2.823,4.073-4.054.833.417,1.553,1.061,2.368,1.5a12.642,12.642,0,0,0,2.936,1.042,34.062,34.062,0,0,0,4.982.682c1.421.019,4.831.682,4-1.99-.72-2.557-4.224-3.788-6.327-4.243a14.828,14.828,0,0,0-3.921-.379,68.93,68.93,0,0,1,5.986-4.167,69.7,69.7,0,0,1,6.46-3.372c1.042,2.615,4.186,4.566,6.326,5.323,3.524,1.232,6.915-.075,9.888-1.875a.777.777,0,0,0-.038-1.213c-2.993-2.235-6.479-4.186-10.173-4.622,2.349-.815,4.717-1.535,7.123-2.16,6.081,1.743,11.991,2.9,17.447-.928A.773.773,0,0,0,3523.138,990.3Z" transform="translate(-3445.831 -980.247)" fill="#69cf62"/>
          </g>
          <g id="Group_1297" data-name="Group 1297" transform="translate(74.147 6.831)">
            <path id="Path_897" data-name="Path 897" d="M3442.423,885.558c6.081-5.4,11.745-10.835,13.961-19.018a.663.663,0,0,0-.606-.834c-4.509.038-8.657,4.489-11.347,8.771a28.855,28.855,0,0,0-3.334,7.88c-.777,2.52-1.023,4.982-2.121,7.464-1,2.444-1.97,4.906-2.861,7.387a31.286,31.286,0,0,0-.663-9.376c-.682-2.861-2.027-5.266-4.432-6.384-.436-.209-.966.227-1.118.834a30.255,30.255,0,0,0-.7,11.877c.587,3.96,2.292,7.255,5.172,8.146l-.095.284a.525.525,0,0,0-.019.171,173.975,173.975,0,0,0-5.19,21.216c-.246-1.724-.72-3.429-.985-4.546a38.152,38.152,0,0,0-3.259-9.283,20.928,20.928,0,0,0-1.875-2.992c-.322-.417-.872-.228-1.156.284a12.472,12.472,0,0,0-1.534,7.16c.019.322.038.625.076.928a20.449,20.449,0,0,0,1.5,5.4,11.842,11.842,0,0,0,.72,1.364c1.25,2.008,3.031,3.618,4.168,5.721a8.51,8.51,0,0,1,.814,1.951c1.25,4.546-1.611,10.419-1.25,15.249.019.133.019.266.038.4-.019-.246-.057-.474-.1-.719a44.1,44.1,0,0,0-1.269-6.252,37.58,37.58,0,0,0-2.652-7.16,18.754,18.754,0,0,0-3.22-4.7.621.621,0,0,0-1,.19,14.367,14.367,0,0,0-1.591,8.411,22.192,22.192,0,0,0,.966,4.528c.1.3.19.606.3.909a32.293,32.293,0,0,0,3.675,7.1v.019a44.075,44.075,0,0,0,3.183,4.244,1.991,1.991,0,0,0,.171.208c.189.209.378.436.568.626a.516.516,0,0,0,.379.208.614.614,0,0,0,.113.114c-.019.511-.057,1.042-.076,1.554-.114,2.633-.19,5.285-.228,7.937,0,.133-.019.284-.019.417-.038,2.443-.038,4.887-.038,7.331a34.865,34.865,0,0,0-2.652-5.323,19.094,19.094,0,0,0-1.667-2.444,8.435,8.435,0,0,0-.663-.776,9.675,9.675,0,0,0-5.229-3.41c-.227-.038-.435.133-.587.379a1.23,1.23,0,0,0-.114.777,44.177,44.177,0,0,0,2.444,7.085.071.071,0,0,0,.019.057,25.5,25.5,0,0,0,2.8,4.887,12.125,12.125,0,0,0,5.7,4.547c.019.7.019,1.383.057,2.083q.056,3.012.17,6.024c.037,1.459.094,2.918.17,4.357.057,1.4.114,2.823.19,4.224.075,1.743.17,3.466.265,5.209q.255,4.291.512,8.581h.3c.247,0,.493.019.739.019h.379q-.113-1.932-.227-3.865v-.019c-.114-1.648-.208-3.277-.284-4.925-.095-1.705-.19-3.41-.265-5.1-.076-1.42-.133-2.822-.19-4.224-.076-1.781-.152-3.543-.208-5.323-.057-2.084-.114-4.168-.151-6.252-.019-.511-.038-1-.038-1.515.265-.038.531-.076.776-.133a7.961,7.961,0,0,0,1.156-.3c.057-.019.132-.038.208-.057a3.909,3.909,0,0,0,.417-.171,11.646,11.646,0,0,0,1.667-.72,18.725,18.725,0,0,0,2.425-1.459.407.407,0,0,0,.151-.1c.076-.057.17-.114.246-.17a12.245,12.245,0,0,0,1.932-1.762,57,57,0,0,0,3.884-5.1.947.947,0,0,0-.3-1.42,3.881,3.881,0,0,0-.89-.341,4.679,4.679,0,0,0-1.458-.209,6.032,6.032,0,0,0-1.516.19,10.887,10.887,0,0,0-3.031,1.269,15.19,15.19,0,0,0-1.724,1.231,16.213,16.213,0,0,0-1.572,1.44v.019a14.07,14.07,0,0,0-1.989,2.444,5,5,0,0,0-.435.663v-4.148l.019-.019a.086.086,0,0,1,0-.095c0-.947,0-1.913.019-2.879,0-.606.019-1.212.038-1.837.019-1.8.076-3.6.152-5.4.037-1.155.094-2.33.151-3.5a2.13,2.13,0,0,1,.284-.152c.606-.341,1.194-.663,1.781-.985a19.872,19.872,0,0,0,6.819-5.7c1.213-1.629,3.637-5,.758-6.1-2.368-.91-5.19,1.155-7.047,2.88a17.2,17.2,0,0,0-1.743,1.78c-.132.114-.228.246-.341.36.038-.493.076-.985.133-1.478.133-1.837.322-3.675.531-5.512.3-2.861.682-5.7,1.117-8.543.928-.322,1.895-.3,2.8-.606a11.114,11.114,0,0,0,3.068-1.686,15.223,15.223,0,0,0,1.346-1.118c1.1-.985,2.1-2.122,3.125-3.24a15.951,15.951,0,0,0,2.368-3.126c.663-1.212.871-2.463-.284-3.333-2.217-1.667-5.892.966-7.8,2.595a26.583,26.583,0,0,0-3.429,3.429,176.965,176.965,0,0,1,4.811-19.284c2.615,1.042,6.44-.815,8.638-2.671,3.637-3.088,5.455-8.013,6.479-12.6a.677.677,0,0,0-.909-.834,29.507,29.507,0,0,0-11.328,7.767c.606-1.591,1.269-3.145,1.894-4.717Z" transform="translate(-3414.553 -865.706)" fill="#69cf62"/>
          </g>
        </g>
      </g>
      <g id="Group_1301" data-name="Group 1301" transform="translate(59.234 138.223)">
        <g id="Group_1300" data-name="Group 1300" transform="translate(2.757)">
          <path id="Path_898" data-name="Path 898" d="M3442.841,1146.6a79.331,79.331,0,0,1-41.483,0c-2.467-18.1-5.014-36.192-7.773-54.251h57.029C3447.855,1110.412,3445.308,1128.5,3442.841,1146.6Z" transform="translate(-3393.585 -1092.353)" fill="#bbbdbf"/>
        </g>
        <path id="Path_899" data-name="Path 899" d="M3450.614,1092.353h-57.03l2.563,16.713h51.9Z" transform="translate(-3390.828 -1092.353)" fill="#929497"/>
        <path id="Path_900" data-name="Path 900" d="M3451.373,1092.353H3388.83l1.992,12.989h58.559Z" transform="translate(-3388.83 -1092.353)" fill="#d0d2d3"/>
        <line id="Line_218" data-name="Line 218" x1="1.085" y2="7.917" transform="translate(58.287 1.979)" fill="none" stroke="#fff" stroke-linecap="round" stroke-miterlimit="10" stroke-width="1.884" opacity="0.64"/>
        <line id="Line_219" data-name="Line 219" x1="3.329" y2="28.375" transform="translate(50.202 18.932)" fill="none" stroke="#fff" stroke-linecap="round" stroke-miterlimit="10" stroke-width="1.884" opacity="0.47"/>
      </g>
    </g>
  </g>
</svg>
