<svg xmlns="http://www.w3.org/2000/svg" width="379.184" height="443.241" viewBox="0 0 379.184 443.241">
  <g id="Group_1337" data-name="Group 1337" transform="translate(-5228.728 -406.662)">
    <g id="Group_1326" data-name="Group 1326" transform="translate(5228.728 761.236)">
      <path id="Path_952" data-name="Path 952" d="M5607.913,1325.668c0,23.865-84.884,45.456-189.593,45.456s-189.591-21.591-189.591-45.456,84.883-43.211,189.591-43.211S5607.913,1301.8,5607.913,1325.668Z" transform="translate(-5228.729 -1282.457)" fill="#ffd126"/>
      <g id="Group_1318" data-name="Group 1318" transform="translate(20.488 10.091)">
        <path id="Path_953" data-name="Path 953" d="M5389.907,1377.082q-13.057-1-26.067-2.592c-8.67-1.065-17.325-2.326-25.916-3.987q-3.218-.642-6.422-1.352l-1.6-.361c-.533-.119-1.067-.238-1.591-.4-1.049-.322-2.057-.808-3.1-1.147-2.094-.641-4.231-1.1-6.363-1.6s-4.233-1.117-6.32-1.78a125.391,125.391,0,0,1-12.319-4.586c-2.009-.885-4-1.8-5.954-2.821-.49-.249-.969-.522-1.454-.781a12.724,12.724,0,0,0-1.464-.77,12.072,12.072,0,0,1-2.914-1.613,33.321,33.321,0,0,1-2.689-2,23.523,23.523,0,0,1-2.473-2.319,14.134,14.134,0,0,1-3.489-6,9.828,9.828,0,0,1-.24-3.6,10.816,10.816,0,0,1,1.021-3.429,17.656,17.656,0,0,1,4.246-5.415,32.11,32.11,0,0,1,2.629-2.112c.45-.333.914-.644,1.375-.956.482-.28.874-.706,1.539-.687a1.887,1.887,0,0,0,.76-.343l.711-.422c.478-.274.956-.549,1.44-.809.967-.528,1.945-1.029,2.929-1.519a116.7,116.7,0,0,1,12.134-5.1c4.123-1.495,8.318-2.773,12.551-3.9a29.608,29.608,0,0,1,3.243-.562c1.087-.155,2.141-.449,3.2-.7q3.19-.754,6.388-1.466c4.261-.968,8.542-1.846,12.836-2.661,2.146-.411,4.3-.761,6.458-1.121l3.235-.516a15.833,15.833,0,0,1,3.283-.2l.17,1.2a16.747,16.747,0,0,1-3.189.753l-3.229.477-6.447,1.018c-4.3.688-8.584,1.443-12.851,2.3-2.132.437-4.259.894-6.375,1.4a28.81,28.81,0,0,0-3.15.85c-.516.177-1.024.383-1.537.569s-1.03.353-1.553.5c-4.2,1.111-8.372,2.3-12.5,3.625a104.292,104.292,0,0,0-12.119,4.673c-.979.459-1.946.941-2.9,1.456-.478.252-.947.518-1.416.783l-.7.408a1.569,1.569,0,0,0-.636.506c-.266.59-.785.76-1.212,1.083-.438.3-.878.6-1.3.923a30.182,30.182,0,0,0-2.449,2,16.6,16.6,0,0,0-3.774,4.817,8.417,8.417,0,0,0-.686,5.7,12.279,12.279,0,0,0,2.959,5.225,21.862,21.862,0,0,0,2.259,2.188c.8.689,1.649,1.333,2.523,1.944q.653.461,1.33.894a11.767,11.767,0,0,1,1.272,1.005,9.512,9.512,0,0,0,1.376.851c.478.252.948.517,1.431.759,1.921.988,3.888,1.9,5.9,2.712,4.007,1.648,8.13,3.016,12.274,4.3,2.077.633,4.166,1.22,6.233,1.9a54.24,54.24,0,0,0,6.3,1.694c1.077.176,2.188.2,3.263.371,1.072.184,2.124.458,3.186.683q3.184.692,6.381,1.328,12.775,2.611,25.709,4.479,12.932,1.835,25.95,3.039Z" transform="translate(-5279.463 -1307.445)" fill="#e7840f"/>
      </g>
      <g id="Group_1319" data-name="Group 1319" transform="translate(248.169 19.514)">
        <path id="Path_954" data-name="Path 954" d="M5918.842,1330.778a123.417,123.417,0,0,1,19.242,7.1,51,51,0,0,1,8.9,5.342,23.354,23.354,0,0,1,3.853,3.656,16.575,16.575,0,0,1,1.56,2.24,12.458,12.458,0,0,1,1.1,2.57,10.985,10.985,0,0,1,.392,2.819,10.5,10.5,0,0,1-.416,2.812,9.377,9.377,0,0,1-1.124,2.553,14.128,14.128,0,0,1-1.848,2,51.58,51.58,0,0,1-3.718,3.689,27.2,27.2,0,0,1-4.233,3.006,67.553,67.553,0,0,1-9.252,4.519c-1.585.646-3.177,1.272-4.779,1.865l-1.2.44a6.726,6.726,0,0,0-1.188.484,5.7,5.7,0,0,1-1.148.6l-1.211.424a182.609,182.609,0,0,1-19.721,5.552l-2.5.544-1.252.264c-.424.058-.811.289-1.3.017a1.072,1.072,0,0,0-.647.031l-.625.133-1.25.261-2.5.519c-3.337.689-6.674,1.384-10.025,2.007q-5.021.962-10.084,1.684a19.863,19.863,0,0,1-2.566.093,20.559,20.559,0,0,0-2.542.262l-5.063.674q-5.061.7-10.133,1.314-1.269.16-2.539.292c-.847.09-1.692.188-2.541.266l-2.542.243a10.029,10.029,0,0,1-2.568-.058l-.1-1.205a9.984,9.984,0,0,1,2.513-.5l2.537-.223,5.076-.439q5.076-.427,10.147-.954c1.687-.19,3.374-.386,5.057-.611a19.086,19.086,0,0,0,2.513-.419,22.034,22.034,0,0,1,2.485-.616l10.082-1.435c3.357-.5,6.716-1,10.054-1.617.837-.147,1.669-.312,2.5-.477l1.248-.25.623-.128a1.063,1.063,0,0,0,.6-.23c.34-.443.784-.394,1.19-.515l1.241-.277,2.478-.571,4.939-1.2c1.645-.405,3.282-.837,4.92-1.261q4.916-1.278,9.752-2.821l1.2-.394a6.461,6.461,0,0,1,1.261-.235,6.538,6.538,0,0,0,1.216-.372l1.189-.444c1.582-.6,3.158-1.216,4.7-1.913a76.432,76.432,0,0,0,8.958-4.649c1.425-.881,2.793-1.833,4.158-2.785a14.68,14.68,0,0,0,3.59-3.4,13.726,13.726,0,0,0,1.028-2.2l.484-1.055.208-.534c.069-.178.112-.362.17-.542a8.334,8.334,0,0,0,.324-2.218,8.8,8.8,0,0,0-.316-2.217,11.36,11.36,0,0,0-.867-2.125,14.583,14.583,0,0,0-1.314-1.968,22.931,22.931,0,0,0-3.442-3.446,47.723,47.723,0,0,0-8.424-5.375,121.938,121.938,0,0,0-18.845-7.428Z" transform="translate(-5843.254 -1330.778)" fill="#e7840f"/>
      </g>
      <g id="Group_1320" data-name="Group 1320" transform="translate(42.346 8.938)">
        <path id="Path_955" data-name="Path 955" d="M5628.079,1338.863a9.054,9.054,0,0,1-.86,3.789,13.1,13.1,0,0,1-2.107,3.183,26.924,26.924,0,0,1-5.735,4.769,54.313,54.313,0,0,1-6.484,3.54c-2.224,1.044-4.493,1.979-6.786,2.841a192.652,192.652,0,0,1-28.252,7.766c-9.565,1.968-19.214,3.477-28.9,4.688s-19.4,2.1-29.136,2.74q-7.3.455-14.613.729l-3.656.127c-1.219.041-2.437.079-3.658.068s-2.439-.053-3.66-.107-2.439-.112-3.659-.136c-4.874-.052-9.745.07-14.619.11-4.875.067-9.749-.045-14.621-.205-9.744-.3-19.479-.9-29.191-1.724-4.856-.423-9.709-.876-14.554-1.411l-3.633-.415c-1.21-.141-2.416-.32-3.636-.382-1.218-.079-2.445-.106-3.652-.283q-1.813-.235-3.625-.488c-9.663-1.344-19.291-3.028-28.809-5.265-4.759-1.12-9.479-2.422-14.139-3.95a96.219,96.219,0,0,1-13.666-5.526,46.219,46.219,0,0,1-6.37-3.873,27.262,27.262,0,0,1-2.881-2.46,7.8,7.8,0,0,1-2.2-3.156c-.123-.3-.24-.6-.377-.9l-.215-.432-.179-.452c-.059-.151-.121-.3-.174-.454l-.134-.47c-.042-.157-.094-.312-.126-.472l-.083-.485a8.524,8.524,0,0,1,.284-3.886,11.4,11.4,0,0,1,1.782-3.4,19.117,19.117,0,0,1,2.56-2.773,36.573,36.573,0,0,1,6.081-4.264,67.936,67.936,0,0,1,6.6-3.289,124.724,124.724,0,0,1,13.821-4.972,241.8,241.8,0,0,1,28.569-6.494c9.706-1.123,19.339-2.58,29.048-3.52q14.544-1.526,29.156-2.277c4.867-.263,9.74-.423,14.613-.551q3.656-.09,7.312-.143a73.052,73.052,0,0,1,7.312.24v1.209q-1.825.173-3.646.234c-1.215.053-2.431.077-3.646.089q-3.645.035-7.291.105c-4.861.092-9.72.264-14.578.45q-14.574.579-29.106,1.913c-9.669.981-19.361,2-28.857,4.123a268.861,268.861,0,0,0-28.419,6.211,123.023,123.023,0,0,0-13.717,4.711,66.448,66.448,0,0,0-6.511,3.127,33.724,33.724,0,0,0-5.887,4.057,17.83,17.83,0,0,0-2.4,2.569,10.134,10.134,0,0,0-1.607,3.02,7.269,7.269,0,0,0-.264,3.327l.068.416c.026.138.072.273.108.409l.111.409c.047.134.1.265.152.4l.154.4.192.384a3.727,3.727,0,0,0,.218.371,3.551,3.551,0,0,0,.287.331c.9.773,1.5,1.727,2.348,2.531a25.3,25.3,0,0,0,2.673,2.27,44.189,44.189,0,0,0,6.1,3.692,94.331,94.331,0,0,0,13.4,5.386c4.595,1.506,9.278,2.757,13.983,3.922,9.422,2.288,18.986,4.035,28.6,5.443q1.8.268,3.607.513c1.2.156,2.394.425,3.59.657s2.407.345,3.612.5l3.624.4c4.834.52,9.675.976,14.525,1.334,9.7.739,19.415,1.179,29.134,1.469l14.584.344c4.862.112,9.728.2,14.59,0,2.429-.124,4.856-.4,7.282-.546s4.857-.169,7.285-.277q7.282-.282,14.559-.74c9.7-.584,19.387-1.4,29.039-2.5s19.271-2.515,28.8-4.376a191.067,191.067,0,0,0,28.081-7.48c2.271-.833,4.513-1.737,6.7-2.744a53.064,53.064,0,0,0,6.353-3.4,25.648,25.648,0,0,0,5.5-4.489,9.5,9.5,0,0,0,2.712-6.137Z" transform="translate(-5333.586 -1304.59)" fill="#e7840f"/>
      </g>
      <g id="Group_1321" data-name="Group 1321" transform="translate(113.46 13.865)">
        <path id="Path_956" data-name="Path 956" d="M5541.771,1318.823c16.055-1.446,32.18-2.076,48.3-2.031s32.253.714,48.31,2.358q6.019.639,12.018,1.461c2,.289,4,.538,5.985.918s3.938.938,5.907,1.379c3.951.818,7.924,1.5,11.88,2.318,3.96.795,7.877,1.815,11.747,2.994a96.443,96.443,0,0,1,11.416,4.179,54.187,54.187,0,0,1,5.443,2.782,28.963,28.963,0,0,1,4.988,3.628,14.67,14.67,0,0,1,2.087,2.35,9.84,9.84,0,0,1,1.432,2.873,7.337,7.337,0,0,1,.212,3.255,8.593,8.593,0,0,1-1.14,3.021,12.8,12.8,0,0,1-1.953,2.478c-.73.745-1.533,1.4-2.3,2.085a16.87,16.87,0,0,1-2.449,1.894c-.878.537-1.767,1.052-2.675,1.523a79.822,79.822,0,0,1-11.255,4.709c-3.843,1.3-7.738,2.416-11.66,3.4s-7.879,1.825-11.847,2.581-7.952,1.411-11.943,2.005c-2,.3-4,.57-6,.835l-3,.378a9.087,9.087,0,0,1-3.032.107,5.646,5.646,0,0,0-1.513.07l-1.5.17-3.006.323q-3.006.314-6.017.582c-4.014.353-8.03.687-12.051.968s-8.046.511-12.072.7c-8.053.386-16.116.515-24.178.478-8.056-.56-16.11-.574-24.16-1.021-8.05-.37-16.1-.906-24.122-1.694-4.015-.37-8.018-.876-12.019-1.391-2-.276-4-.544-5.991-.856a47.527,47.527,0,0,1-5.925-1.253l.208-1.192c4.031.25,7.959,1.066,11.942,1.581q5.968.822,11.955,1.483c7.982.908,15.994,1.567,24.019,2.046a225.348,225.348,0,0,0,24.105.4c8.035.087,16.07-.025,24.1-.234q6.025-.171,12.045-.483c4.013-.209,8.024-.463,12.028-.8q3-.247,6-.541l3-.3,1.5-.159a5.636,5.636,0,0,0,1.485-.27,9.375,9.375,0,0,1,2.96-.607l2.986-.383c1.989-.268,3.977-.543,5.96-.844,7.937-1.187,15.826-2.674,23.607-4.561,3.892-.942,7.75-2.01,11.543-3.257a78.12,78.12,0,0,0,11.038-4.5c.882-.448,1.74-.934,2.582-1.44.829-.525,1.716-.963,2.54-1.5a12.275,12.275,0,0,0,2.243-1.873,11.54,11.54,0,0,0,1.77-2.254,7.358,7.358,0,0,0,.973-2.59,6.1,6.1,0,0,0-.184-2.712,8.253,8.253,0,0,0-1.269-2.49,13.365,13.365,0,0,0-1.94-2.129,27.636,27.636,0,0,0-4.8-3.4,52.546,52.546,0,0,0-5.337-2.64,104.617,104.617,0,0,0-11.278-4.021c-3.836-1.142-7.725-2.113-11.612-3.1-3.895-.956-7.815-1.844-11.794-2.413-1.992-.265-4.01-.36-6-.6-1-.116-1.989-.259-2.98-.411l-2.979-.42q-5.963-.814-11.951-1.439c-15.963-1.727-32.022-2.646-48.093-2.864-16.072-.2-32.158.279-48.183,1.569Z" transform="translate(-5509.682 -1316.789)" fill="#e7840f"/>
      </g>
      <g id="Group_1322" data-name="Group 1322" transform="translate(235.256 43.211)">
        <path id="Path_957" data-name="Path 957" d="M5869.766,1389.458a6.173,6.173,0,0,1-.968,4.294,12.068,12.068,0,0,1-2.939,3.152,35.8,35.8,0,0,1-7.177,4.137,72.61,72.61,0,0,1-7.628,2.878q-3.869,1.239-7.8,2.2c-5.247,1.272-10.542,2.272-15.857,3.107-2.658.416-5.325.76-7.993,1.077s-5.341.591-8.017.824l-.1-.916c2.65-.386,5.3-.76,7.944-1.182s5.277-.886,7.907-1.359c5.259-.956,10.486-2.073,15.632-3.453a97.806,97.806,0,0,0,15.044-5.116,33.8,33.8,0,0,0,6.718-3.9l.73-.6c.238-.2.454-.425.69-.63a12.614,12.614,0,0,0,1.25-1.336,7.911,7.911,0,0,0,1.65-3.176Z" transform="translate(-5811.278 -1389.458)" fill="#e7840f"/>
      </g>
      <g id="Group_1323" data-name="Group 1323" transform="translate(85.299 24.014)">
        <path id="Path_958" data-name="Path 958" d="M5440.091,1361.119a5.089,5.089,0,0,1,.319-3.257,8.6,8.6,0,0,1,1.842-2.633,22.9,22.9,0,0,1,4.913-3.652,44.049,44.049,0,0,1,5.38-2.608c1.833-.753,3.691-1.421,5.564-2.028,3.751-1.2,7.558-2.178,11.389-3,1.915-.414,3.841-.771,5.767-1.108s3.86-.642,5.8-.911l.159.909c-1.9.419-3.8.824-5.7,1.264s-3.778.91-5.659,1.39c-3.755.975-7.485,2.041-11.128,3.319a60.417,60.417,0,0,0-10.5,4.616,20.874,20.874,0,0,0-4.433,3.319,15.581,15.581,0,0,0-1.656,2.028,9.38,9.38,0,0,0-1.133,2.353Z" transform="translate(-5439.949 -1341.922)" fill="#e7840f"/>
      </g>
      <g id="Group_1324" data-name="Group 1324" transform="translate(140.516 23.476)">
        <path id="Path_959" data-name="Path 959" d="M5576.68,1344.684a275.877,275.877,0,0,1,32.517-3.551c10.891-.589,21.812-.726,32.719-.278q4.089.19,8.174.48c1.361.112,2.726.169,4.079.356s2.691.549,4.04.764c2.7.391,5.419.593,8.135.867,2.72.247,5.419.667,8.11,1.129a137.769,137.769,0,0,1,15.983,3.644,79.384,79.384,0,0,1,7.767,2.715q.952.4,1.889.841c.626.294,1.228.633,1.878.89a11.95,11.95,0,0,1,3.635,2.164,11.756,11.756,0,0,1,1.574,1.529,7.7,7.7,0,0,1,1.231,1.938,5.488,5.488,0,0,1,.456,2.373,5.75,5.75,0,0,1-.609,2.327,10.385,10.385,0,0,1-2.9,3.38,23.82,23.82,0,0,1-3.567,2.308,50.037,50.037,0,0,1-7.667,3.215c-2.612.879-5.261,1.618-7.927,2.255-1.333.323-2.669.621-4.009.9q-1,.212-2.012.409a4.286,4.286,0,0,1-2.061.141,2.665,2.665,0,0,0-1.025.084l-1.007.183-2.017.35-4.041.65c-5.394.819-10.808,1.512-16.24,2.024q-8.145.792-16.332,1.051c-5.465-.338-10.9-.058-16.357-.152-5.45-.018-10.9-.141-16.351-.41-2.724-.126-5.445-.33-8.165-.547-1.359-.111-2.718-.234-4.077-.362a23.484,23.484,0,0,1-4.038-.721l.14-1.2a17.857,17.857,0,0,1,2.047.006c.679.028,1.354.084,2.029.152q2.024.211,4.048.4c2.7.251,5.406.442,8.113.643q8.12.586,16.268.766a120.546,120.546,0,0,0,16.28-.47q8.134-.266,16.256-.8c5.412-.383,10.818-.885,16.194-1.627,1.343-.186,2.685-.384,4.022-.606l2.005-.338,1-.177a2.6,2.6,0,0,0,.981-.284,4.395,4.395,0,0,1,1.944-.639q.994-.2,1.983-.419c1.321-.288,2.637-.592,3.946-.92a72.175,72.175,0,0,0,15.147-5.277,22.06,22.06,0,0,0,3.305-2.073,8.612,8.612,0,0,0,2.427-2.714,3.65,3.65,0,0,0,.153-3.182,7.829,7.829,0,0,0-2.266-2.825,16.1,16.1,0,0,0-1.557-1.157c-.548-.353-1.061-.782-1.6-1.177a11.408,11.408,0,0,0-1.76-.957q-.913-.422-1.843-.811a66.376,66.376,0,0,0-7.655-2.6,152.879,152.879,0,0,0-15.88-3.363c-2.675-.434-5.359-.81-8.036-1.258a77.764,77.764,0,0,0-8.081-.972c-1.359-.051-2.73.065-4.087.024-.679-.009-1.354-.071-2.029-.123l-2.028-.148q-4.057-.282-8.121-.462c-21.651-1.044-43.489-.546-64.935,2.839Z" transform="translate(-5576.68 -1340.59)" fill="#e7840f"/>
      </g>
      <g id="Group_1325" data-name="Group 1325" transform="translate(213.167 29.744)">
        <path id="Path_960" data-name="Path 960" d="M5756.669,1356.361a15.049,15.049,0,0,1,5.166-.056q2.551.316,5.092.715,5.083.78,10.1,2.017a60.43,60.43,0,0,1,9.823,3.275,23.135,23.135,0,0,1,4.553,2.64,9.74,9.74,0,0,1,1.913,1.938,4.514,4.514,0,0,1,.893,2.686h-.923a3.531,3.531,0,0,0-.875-2.009,8.55,8.55,0,0,0-1.769-1.577,23.288,23.288,0,0,0-4.411-2.218c-1.549-.616-3.149-1.123-4.762-1.59s-3.248-.873-4.9-1.233c-3.289-.749-6.624-1.312-9.968-1.823-1.673-.249-3.35-.477-5.032-.674a17.329,17.329,0,0,1-4.99-1.173Z" transform="translate(-5756.581 -1356.109)" fill="#e7840f"/>
      </g>
    </g>
    <g id="Group_1329" data-name="Group 1329" transform="translate(5248.251 408.968)">
      <g id="Group_1327" data-name="Group 1327" transform="translate(312.981 41.952)">
        <line id="Line_222" data-name="Line 222" y2="65.182" transform="translate(5.601)" fill="none" stroke="#818180" stroke-miterlimit="10" stroke-width="4.025"/>
        <circle id="Ellipse_142" data-name="Ellipse 142" cx="4.882" cy="4.882" r="4.882" transform="translate(0 71.425) rotate(-80.783)" fill="#0f3571"/>
      </g>
      <g id="Group_1328" data-name="Group 1328">
        <rect id="Rectangle_446" data-name="Rectangle 446" width="334.227" height="13.884" fill="#fff" stroke="#818180" stroke-miterlimit="10" stroke-width="3"/>
        <rect id="Rectangle_447" data-name="Rectangle 447" width="334.227" height="13.884" transform="translate(0 13.884)" fill="#fff" stroke="#818180" stroke-miterlimit="10" stroke-width="3"/>
        <rect id="Rectangle_448" data-name="Rectangle 448" width="334.227" height="13.884" transform="translate(0 27.768)" fill="#fff" stroke="#818180" stroke-miterlimit="10" stroke-width="3"/>
        <rect id="Rectangle_449" data-name="Rectangle 449" width="334.227" height="13.884" transform="translate(0 41.652)" fill="#fff" stroke="#818180" stroke-miterlimit="10" stroke-width="3"/>
      </g>
    </g>
    <path id="Path_982" data-name="Path 982" d="M0,0H334.818V289.177H0Z" transform="translate(5247.659 408.162)" fill="none" stroke="#818180" stroke-width="3"/>
    <g id="Group_1333" data-name="Group 1333" transform="translate(5449.94 757.641)">
      <g id="Group_1331" data-name="Group 1331" transform="translate(0 0)">
        <path id="Path_961" data-name="Path 961" d="M5870.764,1307.741c-3.828,4.286-10.81,4.583-16.417,4.691l-10.918.162a.037.037,0,0,1-.054,0c-4.232.027-8.465.054-12.7.054-1.267-.027-2.561-.027-3.829-.027-9.651-.054-19.275-1.132-28.926-.62-3.8.189-7.656.324-11.323-.674-3.666-.971-7.171-3.208-8.842-6.6a14.591,14.591,0,0,1-.567-1.375c-3.585-10.218,7.548-20.7,17.442-20.7a17.152,17.152,0,0,1,8.115,2.022,6.951,6.951,0,0,0,7.9-1.024,41.6,41.6,0,0,1,22.619-9.732c13.722-1.24,22.052.566,32.243,10.136a23.749,23.749,0,0,1,7.063,11C5873.7,1299.357,5873.675,1304.453,5870.764,1307.741Z" transform="translate(-5776.503 -1273.559)" fill="#d9dbe2"/>
        <path id="Path_962" data-name="Path 962" d="M5880.251,1281.267a42.584,42.584,0,0,0-10.085-3.932,44.3,44.3,0,0,0-20.069-.145c-5.655,1.2-11.207,3-15.954,6.389-2.474,1.765-4.614,4.071-7.747,4.6-3.242.548-6.113-.863-8.914-2.3a19.421,19.421,0,0,0-8.024-2.277c-.524-.021-1.052.008-1.579.03a16.1,16.1,0,0,1,5.451-1,17.325,17.325,0,0,1,8.129,2.016,6.9,6.9,0,0,0,7.879-1.013,41.725,41.725,0,0,1,22.626-9.746c13.216-1.175,21.419.468,31.1,9.123C5882.154,1282.4,5881.226,1281.8,5880.251,1281.267Z" transform="translate(-5795.208 -1273.555)" fill="#b3b8c9"/>
        <path id="Path_963" data-name="Path 963" d="M5828.543,1297.283a35.641,35.641,0,0,1,7.338-8.225,18.073,18.073,0,0,1-1.4,14.4Z" transform="translate(-5807.527 -1282.797)" fill="#d9dbe2"/>
        <path id="Path_964" data-name="Path 964" d="M5786.906,1300.047a30.882,30.882,0,0,0-7.48-6.794,12.582,12.582,0,0,0,1.1,12.191Z" transform="translate(-5777.6 -1285.298)" fill="#d9dbe2"/>
        <g id="Group_1330" data-name="Group 1330" transform="translate(9.703 28.496)">
          <path id="Path_965" data-name="Path 965" d="M5804.977,1344.118a5.282,5.282,0,0,1-1.41,1.4,1.659,1.659,0,0,1-.67.366,1.476,1.476,0,0,1-1.091-.369,6.25,6.25,0,0,1-1.277-1.242" transform="translate(-5800.529 -1344.118)" fill="none" stroke="#3a3942" stroke-linecap="round" stroke-miterlimit="10" stroke-width="1.066"/>
          <path id="Path_966" data-name="Path 966" d="M5805.942,1348.784a5.8,5.8,0,0,0-.053,1.869" transform="translate(-5803.693 -1346.9)" fill="none" stroke="#3a3942" stroke-linecap="round" stroke-miterlimit="10" stroke-width="1.066"/>
        </g>
        <path id="Path_967" data-name="Path 967" d="M5787.061,1335.794a1.8,1.8,0,0,1-3.2.008" transform="translate(-5780.887 -1310.66)" fill="none" stroke="#3a3942" stroke-linecap="round" stroke-miterlimit="10" stroke-width="1.066"/>
        <path id="Path_968" data-name="Path 968" d="M5823.813,1335.794a1.8,1.8,0,0,1-3.2.008" transform="translate(-5802.796 -1310.66)" fill="none" stroke="#3a3942" stroke-linecap="round" stroke-miterlimit="10" stroke-width="1.066"/>
        <path id="Path_969" data-name="Path 969" d="M5932.344,1313.3a17.923,17.923,0,0,0-6.874-3.127c-3.047-.728-6.5-.728-8.924,1.213a8.023,8.023,0,0,0-2.426,7.791,13.061,13.061,0,0,0,4.637,7.036c-.635-.527-2.313-.56-3.1-.615a13.231,13.231,0,0,0-3.382.2,8.116,8.116,0,0,0-5.529,3.155,1.979,1.979,0,0,0-.4.9,1.526,1.526,0,0,0,.641,1.289c1.512,1.184,3.632,1.228,5.459,1.456q3.361.42,6.746.568c-4.232.027-8.465.054-12.7.054a4.493,4.493,0,0,1-2.292-1.591c-1.348-1.995.082-4.88,2.211-5.931,2.155-1.078,4.664-.836,7.063-.593-1.293-.135-2.453-3.343-2.7-4.341a10.957,10.957,0,0,1,.323-5.445c.917-3.586,4.26-5.985,7.791-6.875a12.8,12.8,0,0,1,9.625,1.429A16,16,0,0,1,5932.344,1313.3Z" transform="translate(-5852.316 -1294.132)" fill="#b3b8c9"/>
      </g>
      <g id="Group_1332" data-name="Group 1332" transform="translate(7.891 21.826)">
        <path id="Path_970" data-name="Path 970" d="M5800.326,1366.93a4.287,4.287,0,0,1-3.841-6.182c4.8-9.739,15.868-13.614,24.626-13.993,6.846-.295,13.439,1.032,19.817,2.314,1.99.4,3.98.8,5.974,1.148,6.091,1.066,14.994,2.077,22.008-1.422,5.425-2.709,9.891-9.662,7.628-15.309a4.286,4.286,0,0,1,7.956-3.191c4.188,10.449-2.841,21.717-11.756,26.166-9.278,4.634-20.034,3.47-27.313,2.2-2.064-.363-4.125-.777-6.188-1.193-6.148-1.237-11.958-2.383-17.755-2.153-6.017.26-14.159,2.833-17.309,9.222A4.286,4.286,0,0,1,5800.326,1366.93Z" transform="translate(-5796.042 -1327.602)" fill="#d9dbe2"/>
      </g>
    </g>
    <g id="Group_1336" data-name="Group 1336" transform="translate(5491.45 589.466)">
      <g id="Group_1334" data-name="Group 1334" transform="translate(0 0)">
        <path id="Path_971" data-name="Path 971" d="M6028.568,905.229c-9.046,5.146-18.1,10.594-25.593,17.9-3.716,3.626-7.105,8.21-11.053,11.955-1.432.583-2.853,1.2-4.217,1.911a50.742,50.742,0,0,0,4.451-8.034c2.882-6.224,5.962-12.311,9.148-18.385a132.621,132.621,0,0,0,8.237-17.924c2.311-6.646,4.032-13.487,7.258-19.778.309-.6-.527-1.37-.994-.771-.034.043-.066.086-.1.129h0l0,0c-4.331,5.559-8.189,11.453-12.605,16.951-4.037,5.026-8.167,10.027-11.483,15.573a68.093,68.093,0,0,0-7.2,18.232c-.672,2.619-1.375,5.276-1.913,7.944.052-2.233-.111-4.488-.126-6.716-.042-6.192.224-12.585-1-18.69-1.171-5.837-3.853-11.206-6.062-16.689-2.307-5.725-3.3-11.847-5.632-17.55a.641.641,0,0,0-1.224,0c-2.063,5.711-1.724,11.762-1.14,17.71.625,6.37,1.115,12.74,2.268,19.043,1.121,6.121,2.7,12.148,4.226,18.176,1.284,5.058,2.705,10.377,5.913,14.6.9-.053,1.806-.113,2.709-.153,1.468-.065,2.948-.094,4.425-.161a31.28,31.28,0,0,0,5.653-4.308c1.56-.624,3.134-1.209,4.66-1.846a136.754,136.754,0,0,0,12.916-5.956,35.418,35.418,0,0,0,11.131-8.975c3.236-4.107,5.5-8.872,8.214-13.318A.639.639,0,0,0,6028.568,905.229Zm-43.192,34.67a22.7,22.7,0,0,1,3.015-1.856A23.581,23.581,0,0,1,5985.376,939.9Z" transform="translate(-5931.504 -865.299)" fill="#69cf62"/>
        <path id="Path_972" data-name="Path 972" d="M5940.666,961.314c.145.766.3,1.529.5,2.282q.751.061,1.5.079a14.5,14.5,0,0,0-.734-2.48c-.242-1.264-.458-2.534-.819-3.774-.7-2.394-1.652-4.736-2.452-7.1-1.715-5.067-3.48-10.132-6.237-14.743-5.678-9.495-14.1-16.957-20.076-26.245a.643.643,0,0,0-1.16.149c-.914,4.166.891,8.37,2.7,12.053,2.429,4.951,5.25,9.794,8.07,14.53a85.709,85.709,0,0,0,10.037,13.783C5935.036,953.215,5938.886,956.926,5940.666,961.314Z" transform="translate(-5898.16 -888.067)" fill="#69cf62"/>
        <path id="Path_973" data-name="Path 973" d="M5919.071,1006.768c.494.1.99.176,1.488.247-3.714-6.5-8.826-12.694-15.164-16.709a21.884,21.884,0,0,0-9.878-3.365c-2.8-.27-5.621-.24-8.329-1.138a39.038,39.038,0,0,1-6.934-3.542.64.64,0,0,0-.871.867c3.711,5.973,11.315,7.287,17.2,10.22a98.765,98.765,0,0,1,12.479,7.388c2.046,1.425,4.212,2.741,6.187,4.266a8.915,8.915,0,0,0,3.693,1.741Z" transform="translate(-5879.291 -931.673)" fill="#69cf62"/>
        <path id="Path_974" data-name="Path 974" d="M6042.989,917.052c-.237.583-.442,1.176-.63,1.774-1.755,4.328-5.245,8.608-7.9,12.172-2.974,4-6.291,7.708-9.432,11.575a49.377,49.377,0,0,0-7.147,11.108,62.5,62.5,0,0,0-2.184,6.212c-.618,1.935-1.6,3.788-2.142,5.737l-.111.064a.57.57,0,0,0-.083.945.633.633,0,0,0,1.239.061c.017-.081.041-.161.059-.243a51.711,51.711,0,0,0,11.107-8,45.959,45.959,0,0,0,8.171-11.834,106.215,106.215,0,0,0,6.182-13.321c1.58-4.535,1.9-9.449,3.382-13.987a17.452,17.452,0,0,0,.666-1.836C6044.374,916.8,6043.262,916.384,6042.989,917.052Z" transform="translate(-5959.095 -892.645)" fill="#69cf62"/>
        <path id="Path_975" data-name="Path 975" d="M6044.854,954.945c-3.4,4.494-6.038,9.543-8.813,14.436-2.212,3.9-3.693,8.973-7.587,11.574-.675.451-.043,1.553.639,1.1,3.716-2.483,6.519-7.242,8.518-11.047,2.824-5.378,4.667-10.57,8.337-15.416C6046.44,954.937,6045.34,954.3,6044.854,954.945Z" transform="translate(-5968.044 -915.277)" fill="#69cf62"/>
        <path id="Path_976" data-name="Path 976" d="M5945.745,962.913c-3.526-5.99-8.687-10.345-13.265-15.466a68.892,68.892,0,0,1-6.945-9.247c-1.886-3-4.592-6.174-5.88-9.47a.555.555,0,0,0-.061-.095c-.017-.045-.035-.089-.052-.133-.286-.756-1.515-.431-1.224.335a76.088,76.088,0,0,0,10.4,19.394c4.552,5.917,10.85,10.124,16.028,15.45A.637.637,0,0,0,5945.745,962.913Z" transform="translate(-5902.531 -899.417)" fill="#69cf62"/>
        <path id="Path_977" data-name="Path 977" d="M5980.788,929.216c-.851-4.149-1.688-8.3-2.578-12.441-.835-3.887-1.522-7.813-2.217-11.726a10.016,10.016,0,0,0-.186-1.178q-.229-.777-.477-1.549-.5-1.543-1.069-3.06c-.071-.189-.168-.4-.362-.455a.444.444,0,0,0-.441.172,2.3,2.3,0,0,0-.3,1.035,7.181,7.181,0,0,0-.088,1.3c.01.84.125,1.673.2,2.509a106.918,106.918,0,0,0,1.5,12.439c1.011,4.685,1.781,7.6,2.814,12.278.744,3.37,2.962,10.467,4.63,13.529.314.577,1.211,2.1,1.241,1.5C5983.619,940.12,5981.478,932.575,5980.788,929.216Z" transform="translate(-5935.198 -881.963)" fill="#69cf62"/>
        <path id="Path_978" data-name="Path 978" d="M5994.09,865.881c-5.415,8.044-8.515,17.895-10.564,27.418.265-5.073.369-10.15.529-15.23.109-3.434.176-6.891.555-10.307a71.953,71.953,0,0,0,.869-10.033.635.635,0,0,0-1.269,0c-.383,6.248-2.963,11.921-5.065,17.729-2,5.539-2.825,11.179-3.621,16.992a142.142,142.142,0,0,0-1.571,18.855c-.016,6.012.385,11.972-.085,17.953-.438-4.937-3.024-10.457-4.449-13.884a73.729,73.729,0,0,1-4.377-12.725c-1.479-6.757-2.672-13.626-6.027-19.763a.64.64,0,0,0-1.1,0c-2.07,3.656-1.265,8.153-.477,12.071,1.171,5.826,1.951,11.52,2.745,17.412a67.849,67.849,0,0,0,4.016,16.465,30.425,30.425,0,0,0,1.625,3.493,28.277,28.277,0,0,0,4.866.418c1.7-.007,3.4-.145,5.1-.233a43.272,43.272,0,0,0,2.2-4.618,29.233,29.233,0,0,0,.031,2.931.612.612,0,0,0,.268.479,9.427,9.427,0,0,1-1.22,1.152c.685-.025,1.373-.048,2.061-.07a27.681,27.681,0,0,0,3.336-4.667,62.855,62.855,0,0,0,6.436-15.752c4.208-14.872,5.116-30.429,6.367-45.757C5995.327,865.531,5994.413,865.4,5994.09,865.881Z" transform="translate(-5925.384 -857.114)" fill="#69cf62"/>
      </g>
      <g id="Group_1335" data-name="Group 1335" transform="translate(29.86 71.402)">
        <path id="Path_979" data-name="Path 979" d="M5986.631,1070.708H5958.5c-1.672-12.273-3.4-24.54-5.27-36.785H5991.9C5990.03,1046.168,5988.3,1058.434,5986.631,1070.708Z" transform="translate(-5953.232 -1033.923)" fill="#58595b"/>
      </g>
      <path id="Path_980" data-name="Path 980" d="M5991.9,1033.923h-38.668l1.737,11.332h35.193Z" transform="translate(-5923.372 -962.521)" fill="#414042"/>
      <path id="Path_981" data-name="Path 981" d="M5991.011,1033.923H5948.6l1.351,8.807h39.7Z" transform="translate(-5920.613 -962.521)" fill="#6d6e71"/>
      <line id="Line_223" data-name="Line 223" x1="0.735" y2="5.368" transform="translate(67.513 72.744)" fill="none" stroke="#fff" stroke-linecap="round" stroke-miterlimit="10" stroke-width="1.834" opacity="0.47"/>
      <line id="Line_224" data-name="Line 224" x1="2.257" y2="19.24" transform="translate(62.031 84.239)" fill="none" stroke="#fff" stroke-linecap="round" stroke-miterlimit="10" stroke-width="1.834" opacity="0.47"/>
    </g>
  </g>
</svg>
