<svg xmlns="http://www.w3.org/2000/svg" width="269.548" height="55.822" viewBox="0 0 269.548 55.822">
  <g id="Group_1260" data-name="Group 1260" transform="translate(-96.452 -17.313)">
    <text id="Blue" transform="translate(285 53.313)" fill="none" stroke="#03409b" stroke-width="1" font-size="38.339" font-family="ArialMT, Arial" letter-spacing="0.025em"><tspan x="0" y="0">Blue</tspan></text>
    <text id="World" transform="translate(168 53.313)" fill="#5fc0fa" font-size="38.339" font-family="Arial-BoldMT, Arial" font-weight="700" letter-spacing="0.025em"><tspan x="0" y="0">World</tspan></text>
    <g id="Group_191" data-name="Group 191" transform="translate(73.16 -1)">
      <g id="Group_188" data-name="Group 188">
        <g id="Group_187" data-name="Group 187">
          <g id="Group_186" data-name="Group 186">
            <circle id="Ellipse_1" data-name="Ellipse 1" cx="24.761" cy="24.761" r="24.761" transform="translate(23.792 19.35)" fill="none" stroke="#5fc0fa" stroke-miterlimit="10" stroke-width="1"/>
            <g id="Group_185" data-name="Group 185">
              <g id="Group_183" data-name="Group 183">
                <circle id="Ellipse_2" data-name="Ellipse 2" cx="24.761" cy="24.761" r="24.761" transform="translate(23.792 19.35)" fill="none" stroke="#5fc0fa" stroke-miterlimit="10" stroke-width="0.5"/>
                <ellipse id="Ellipse_3" data-name="Ellipse 3" cx="19.056" cy="24.761" rx="19.056" ry="24.761" transform="translate(29.498 19.35)" fill="none" stroke="#5fc0fa" stroke-miterlimit="10" stroke-width="0.5"/>
                <ellipse id="Ellipse_4" data-name="Ellipse 4" cx="11.409" cy="24.761" rx="11.409" ry="24.761" transform="translate(37.144 19.35)" fill="none" stroke="#5fc0fa" stroke-miterlimit="10" stroke-width="0.5"/>
                <ellipse id="Ellipse_5" data-name="Ellipse 5" cx="3.737" cy="24.761" rx="3.737" ry="24.761" transform="translate(44.816 19.35)" fill="none" stroke="#5fc0fa" stroke-miterlimit="10" stroke-width="0.5"/>
              </g>
              <g id="Group_184" data-name="Group 184">
                <circle id="Ellipse_6" data-name="Ellipse 6" cx="24.761" cy="24.761" r="24.761" transform="translate(23.792 19.35)" fill="none" stroke="#5fc0fa" stroke-miterlimit="10" stroke-width="0.5"/>
                <ellipse id="Ellipse_7" data-name="Ellipse 7" cx="24.761" cy="19.056" rx="24.761" ry="19.056" transform="translate(23.792 25.055)" fill="none" stroke="#5fc0fa" stroke-miterlimit="10" stroke-width="0.5"/>
                <ellipse id="Ellipse_8" data-name="Ellipse 8" cx="24.761" cy="11.409" rx="24.761" ry="11.409" transform="translate(23.792 32.702)" fill="none" stroke="#5fc0fa" stroke-miterlimit="10" stroke-width="0.5"/>
                <ellipse id="Ellipse_9" data-name="Ellipse 9" cx="24.761" cy="3.737" rx="24.761" ry="3.737" transform="translate(23.792 40.374)" fill="none" stroke="#5fc0fa" stroke-miterlimit="10" stroke-width="0.5"/>
              </g>
            </g>
          </g>
        </g>
      </g>
      <g id="Group_190" data-name="Group 190">
        <g id="Group_189" data-name="Group 189">
          <path id="Path_145" data-name="Path 145" d="M62.882,67.767l-.012.249a16.211,16.211,0,0,1-.831,4,3.526,3.526,0,0,1-.536,1.133,2.356,2.356,0,0,1-2.119.783,3.862,3.862,0,0,1-2.077-1.042,5.738,5.738,0,0,1-1.176-1.5,4.383,4.383,0,0,0-.677-1.087c-.932-.923-3.336-.784-4.08.325A8.861,8.861,0,0,0,50.78,71.9a3.751,3.751,0,0,1-2.211,2.049,5.477,5.477,0,0,1-1.6.183,3.691,3.691,0,0,1-1.533-.226c-1.145-.511-1.563-1.947-2.563-2.7a2.65,2.65,0,0,0-2.088-.481c-.715.141-1.35.576-2.069.694-3.3.542-5.7-3.56-7.169-5.857a2.549,2.549,0,0,0-.511-.637c-.556-.449-1.357-.358-2.052-.525a4.274,4.274,0,0,1-2.436-1.912,19.641,19.641,0,0,0-1.986-2.549c-.783-.921-.409-2.031.571-2.794.945-.736,1.766-.3,2.389.443,1.056,1.262,1.561,2.8,2.672,4.042.264.3.619.6,1.007.519.344-.073.545-.417.776-.683a2.78,2.78,0,0,1,2.127-.871A3.567,3.567,0,0,1,37.3,62.3c.631,1.033,1.08,2.176,1.613,3.269a3.213,3.213,0,0,0,3.7,1.955c.491-.111.746-1.681.939-2.618.183-.89.283-1.682,1.074-2.179a6.452,6.452,0,0,1,2.648-1.065,3.326,3.326,0,0,1,3.056,1.152c.8,1.081.651,2.575,1.02,3.871a1.952,1.952,0,0,0,2.061,1.635c1.52-.076,2-1.009,2.216-2.428a9.2,9.2,0,0,1,.323-2.177,3.925,3.925,0,0,1,.736-1.062,4.422,4.422,0,0,1,1.133-.982,3.029,3.029,0,0,1,3.129.3,4.731,4.731,0,0,1,1.728,2.746A10.615,10.615,0,0,1,62.882,67.767Z" fill="#03409b"/>
        </g>
      </g>
      <path id="Path_146" data-name="Path 146" d="M72.747,53.825a2.235,2.235,0,0,0-1.667.562,24.8,24.8,0,0,1-5.369,7.568,9.158,9.158,0,0,0,1.777-.672l2.732-1.138c1.715-.714,4.249-2.078,4.209-4.254A2.109,2.109,0,0,0,72.747,53.825Z" fill="#03409b"/>
    </g>
  </g>
</svg>
