<svg xmlns="http://www.w3.org/2000/svg" width="157.198" height="170.034" viewBox="0 0 157.198 170.034">
  <g id="Group_1368" data-name="Group 1368" transform="translate(-7636.5 -4688.813)">
    <g id="Group_1368-2" data-name="Group 1368" transform="translate(7637 4689.313)">
      <g id="Group_187" data-name="Group 187">
        <g id="Group_186" data-name="Group 186">
          <circle id="Ellipse_1" data-name="Ellipse 1" cx="76.624" cy="76.624" r="76.624" fill="none" stroke="#5fc0fa" stroke-miterlimit="10" stroke-width="1"/>
          <g id="Group_185" data-name="Group 185">
            <g id="Group_183" data-name="Group 183">
              <circle id="Ellipse_2" data-name="Ellipse 2" cx="76.624" cy="76.624" r="76.624" fill="none" stroke="#5fc0fa" stroke-miterlimit="10" stroke-width="0.5"/>
              <ellipse id="Ellipse_3" data-name="Ellipse 3" cx="58.968" cy="76.624" rx="58.968" ry="76.624" transform="translate(17.656)" fill="none" stroke="#5fc0fa" stroke-miterlimit="10" stroke-width="0.5"/>
              <ellipse id="Ellipse_4" data-name="Ellipse 4" cx="35.305" cy="76.624" rx="35.305" ry="76.624" transform="translate(41.318)" fill="none" stroke="#5fc0fa" stroke-miterlimit="10" stroke-width="0.5"/>
              <ellipse id="Ellipse_5" data-name="Ellipse 5" cx="11.565" cy="76.624" rx="11.565" ry="76.624" transform="translate(65.059)" fill="none" stroke="#5fc0fa" stroke-miterlimit="10" stroke-width="0.5"/>
            </g>
            <g id="Group_184" data-name="Group 184">
              <circle id="Ellipse_6" data-name="Ellipse 6" cx="76.624" cy="76.624" r="76.624" fill="none" stroke="#5fc0fa" stroke-miterlimit="10" stroke-width="0.5"/>
              <ellipse id="Ellipse_7" data-name="Ellipse 7" cx="76.624" cy="58.968" rx="76.624" ry="58.968" transform="translate(0 17.656)" fill="none" stroke="#5fc0fa" stroke-miterlimit="10" stroke-width="0.5"/>
              <ellipse id="Ellipse_8" data-name="Ellipse 8" cx="76.624" cy="35.305" rx="76.624" ry="35.305" transform="translate(0 41.318)" fill="none" stroke="#5fc0fa" stroke-miterlimit="10" stroke-width="0.5"/>
              <ellipse id="Ellipse_9" data-name="Ellipse 9" cx="76.624" cy="11.565" rx="76.624" ry="11.565" transform="translate(0 65.059)" fill="none" stroke="#5fc0fa" stroke-miterlimit="10" stroke-width="0.5"/>
            </g>
          </g>
        </g>
      </g>
    </g>
    <g id="Group_1369" data-name="Group 1369" transform="translate(7638.093 4805.093)">
      <g id="Group_189" data-name="Group 189">
        <path id="Path_145" data-name="Path 145" d="M144.016,90.812l-.037.771a50.166,50.166,0,0,1-2.572,12.384,10.913,10.913,0,0,1-1.659,3.506,7.29,7.29,0,0,1-6.557,2.423,11.95,11.95,0,0,1-6.427-3.224,17.757,17.757,0,0,1-3.639-4.648,13.563,13.563,0,0,0-2.095-3.364c-2.884-2.856-10.323-2.426-12.626,1.006a27.418,27.418,0,0,0-1.838,3.945,11.608,11.608,0,0,1-6.842,6.341,16.95,16.95,0,0,1-4.936.566,11.423,11.423,0,0,1-4.744-.7c-3.543-1.581-4.837-6.025-7.931-8.368a8.2,8.2,0,0,0-6.461-1.488c-2.213.436-4.178,1.782-6.4,2.148-10.224,1.677-17.629-11.016-22.184-18.124a7.888,7.888,0,0,0-1.581-1.971c-1.721-1.389-4.2-1.108-6.35-1.625A13.224,13.224,0,0,1,31.6,74.473a60.781,60.781,0,0,0-6.146-7.888c-2.423-2.85-1.266-6.285,1.767-8.646,2.924-2.278,5.465-.928,7.393,1.371,3.268,3.905,4.831,8.658,8.268,12.508.817.916,1.915,1.863,3.116,1.606,1.064-.226,1.686-1.29,2.4-2.114a8.6,8.6,0,0,1,6.582-2.7,11.037,11.037,0,0,1,9.862,5.292c1.953,3.2,3.342,6.734,4.991,10.116,2.352,4.821,6.619,7.145,11.453,6.05,1.519-.343,2.308-5.2,2.906-8.1.566-2.754.876-5.2,3.323-6.743a19.965,19.965,0,0,1,8.194-3.3c3.5-.418,7.349.73,9.457,3.565,2.485,3.345,2.015,7.968,3.156,11.979.925,3.249,3,5.233,6.378,5.059,4.7-.235,6.18-3.122,6.857-7.513.35-2.253.121-4.632,1-6.737A12.147,12.147,0,0,1,124.833,75a13.685,13.685,0,0,1,3.506-3.039,9.373,9.373,0,0,1,9.683.925,14.641,14.641,0,0,1,5.347,8.5A32.849,32.849,0,0,1,144.016,90.812Z" transform="translate(-24.145 -56.764)" fill="#03409b"/>
      </g>
    </g>
    <path id="Path_1010" data-name="Path 1010" d="M87.484,53.855a6.916,6.916,0,0,0-5.159,1.739A76.742,76.742,0,0,1,65.711,79.013a28.339,28.339,0,0,0,5.5-2.079q4.229-1.759,8.454-3.522c5.307-2.209,13.149-6.43,13.025-13.164C92.636,57.252,90.455,54.241,87.484,53.855Z" transform="translate(7701.008 4742.142)" fill="#03409b"/>
  </g>
</svg>
